<svg width="251" height="22" viewBox="0 0 251 22" fill="none" xmlns="http://www.w3.org/2000/svg">
<path d="M250.063 11.8662H239.927C239.819 11.9053 239.756 11.9492 239.736 11.998C239.717 12.0371 239.697 12.1201 239.678 12.2471C239.658 12.335 239.639 12.5254 239.619 12.8184C239.609 13.1113 239.604 13.4434 239.604 13.8145C239.604 14.1855 239.648 14.542 239.736 14.8838C239.824 15.2256 239.922 15.5625 240.029 15.8945C240.439 17.1055 241.079 18.0283 241.948 18.6631C242.827 19.2979 243.979 19.6152 245.405 19.6152C245.62 19.6152 245.854 19.5762 246.108 19.498C246.362 19.4199 246.616 19.3223 246.87 19.2051C247.124 19.0781 247.368 18.9316 247.603 18.7656C247.837 18.5996 248.042 18.4287 248.218 18.2529C248.345 18.1357 248.447 18.0039 248.525 17.8574C248.613 17.7012 248.721 17.5107 248.848 17.2861C248.887 17.2471 248.94 17.2178 249.009 17.1982C249.077 17.1689 249.136 17.1543 249.185 17.1543C249.36 17.1543 249.478 17.2129 249.536 17.3301C249.604 17.4375 249.639 17.5742 249.639 17.7402C249.639 17.7891 249.619 17.8574 249.58 17.9453C249.551 18.0234 249.512 18.1064 249.463 18.1943C249.424 18.2822 249.375 18.3701 249.316 18.458C249.268 18.5361 249.229 18.5947 249.199 18.6338C248.828 19.1904 248.359 19.6836 247.793 20.1133C247.227 20.5332 246.548 20.875 245.757 21.1387C245.581 21.1875 245.278 21.2266 244.849 21.2559C244.429 21.2949 243.97 21.3145 243.472 21.3145C243.032 21.3145 242.578 21.2559 242.109 21.1387C241.65 21.0215 241.201 20.8555 240.762 20.6406C240.322 20.4258 239.912 20.1768 239.531 19.8936C239.16 19.6104 238.853 19.2979 238.608 18.9561C238.081 18.2334 237.69 17.501 237.437 16.7588C237.192 16.0166 237.07 15.1865 237.07 14.2686C237.07 13.9365 237.085 13.624 237.114 13.3311C237.153 13.0283 237.212 12.7354 237.29 12.4521C237.378 12.1689 237.485 11.8906 237.612 11.6172C237.739 11.334 237.896 11.0459 238.081 10.7529C238.403 10.2158 238.77 9.72266 239.18 9.27344C239.59 8.82422 240.044 8.43848 240.542 8.11621C241.04 7.79395 241.577 7.54492 242.153 7.36914C242.729 7.19336 243.35 7.10547 244.014 7.10547C244.57 7.10547 245.146 7.16406 245.742 7.28125C246.348 7.38867 246.929 7.63281 247.485 8.01367C247.661 8.14062 247.905 8.33594 248.218 8.59961C248.53 8.86328 248.838 9.16113 249.141 9.49316C249.443 9.81543 249.707 10.1572 249.932 10.5186C250.156 10.8799 250.269 11.2266 250.269 11.5586C250.269 11.6465 250.249 11.7197 250.21 11.7783C250.181 11.8369 250.132 11.8662 250.063 11.8662ZM240.308 11.0752H246.826C246.992 11.0752 247.09 11.0557 247.119 11.0166C247.158 10.9678 247.178 10.9189 247.178 10.8701C247.178 10.6455 247.119 10.4111 247.002 10.167C246.895 9.92285 246.758 9.69336 246.592 9.47852C246.436 9.25391 246.274 9.05371 246.108 8.87793C245.942 8.70215 245.801 8.56543 245.684 8.46777C245.371 8.2041 245.059 8.0332 244.746 7.95508C244.434 7.87695 244.077 7.83789 243.677 7.83789C243.511 7.83789 243.354 7.84277 243.208 7.85254C243.071 7.85254 242.935 7.8623 242.798 7.88184C242.661 7.90137 242.524 7.93066 242.388 7.96973C242.251 8.00879 242.1 8.06738 241.934 8.14551C241.748 8.2334 241.543 8.375 241.318 8.57031C241.104 8.75586 240.898 8.97559 240.703 9.22949C240.518 9.47363 240.356 9.74219 240.22 10.0352C240.093 10.3281 240.029 10.6162 240.029 10.8994C240.029 11.0166 240.122 11.0752 240.308 11.0752Z" fill="#222222"/>
<path d="M226.756 20.0684V12.041C226.756 11.748 226.751 11.4404 226.741 11.1182C226.741 10.7861 226.722 10.4785 226.683 10.1953C226.653 9.91211 226.6 9.67285 226.521 9.47754C226.453 9.27246 226.355 9.14062 226.229 9.08203C225.994 8.97461 225.706 8.9209 225.364 8.9209C225.14 8.9209 224.93 8.93066 224.734 8.9502C224.549 8.96973 224.378 8.97949 224.222 8.97949C224.173 8.97949 224.129 8.95996 224.09 8.9209C224.051 8.88184 224.031 8.84277 224.031 8.80371C224.031 8.69629 224.065 8.63281 224.134 8.61328C224.437 8.4375 224.744 8.31543 225.057 8.24707C225.369 8.17871 225.691 8.09082 226.023 7.9834C226.316 7.89551 226.614 7.80273 226.917 7.70508C227.22 7.60742 227.498 7.48047 227.752 7.32422C227.928 7.23633 228.089 7.14355 228.235 7.0459C228.382 6.94824 228.567 6.89941 228.792 6.89941C228.851 6.89941 228.904 6.93848 228.953 7.0166C229.012 7.08496 229.041 7.13867 229.041 7.17773V7.9834C229.041 8.06152 229.041 8.1543 229.041 8.26172C229.051 8.36914 229.056 8.47656 229.056 8.58398C229.065 8.69141 229.075 8.79395 229.085 8.8916C229.095 8.97949 229.104 9.04297 229.114 9.08203C229.124 9.12109 229.139 9.15039 229.158 9.16992L229.173 9.18457C229.231 9.18457 229.285 9.15527 229.334 9.09668C229.383 9.02832 229.437 8.94531 229.495 8.84766C229.563 8.74023 229.637 8.62305 229.715 8.49609C229.803 8.36914 229.915 8.24219 230.052 8.11523C230.237 7.92969 230.442 7.75879 230.667 7.60254C230.901 7.43652 231.141 7.29492 231.385 7.17773C231.639 7.06055 231.893 6.96777 232.146 6.89941C232.41 6.83105 232.669 6.79688 232.923 6.79688C233.294 6.79688 233.675 6.83105 234.065 6.89941C234.456 6.95801 234.808 7.07031 235.12 7.23633C235.442 7.39258 235.706 7.61719 235.911 7.91016C236.116 8.20312 236.219 8.57422 236.219 9.02344C236.219 9.26758 236.165 9.49219 236.058 9.69727C235.96 9.90234 235.823 10.0781 235.647 10.2246C235.481 10.3711 235.286 10.4883 235.062 10.5762C234.847 10.6543 234.622 10.6934 234.388 10.6934C234.231 10.6934 234.065 10.6689 233.89 10.6201C233.714 10.5713 233.602 10.5127 233.553 10.4443C233.25 10.1709 233.04 9.7998 232.923 9.33105C232.874 9.06738 232.84 8.84766 232.82 8.67188C232.811 8.48633 232.771 8.34473 232.703 8.24707C232.645 8.13965 232.542 8.06641 232.396 8.02734C232.249 7.97852 232.02 7.9541 231.707 7.9541C231.453 7.9541 231.189 8.02246 230.916 8.15918C230.652 8.28613 230.403 8.45215 230.169 8.65723C229.944 8.8623 229.749 9.0918 229.583 9.3457C229.417 9.58984 229.319 9.8291 229.29 10.0635C229.241 10.2783 229.212 10.5127 229.202 10.7666C229.202 11.0107 229.202 11.2646 229.202 11.5283V20.332C229.261 20.459 229.368 20.542 229.524 20.5811C229.681 20.6104 229.856 20.625 230.052 20.625C230.11 20.625 230.188 20.625 230.286 20.625C230.394 20.6152 230.501 20.6104 230.608 20.6104C230.726 20.6006 230.828 20.5957 230.916 20.5957C231.004 20.5859 231.062 20.5811 231.092 20.5811C231.316 20.5811 231.497 20.6104 231.634 20.6689C231.78 20.7178 231.854 20.8301 231.854 21.0059C231.854 21.123 231.795 21.2305 231.678 21.3281C231.57 21.4258 231.463 21.4795 231.355 21.4893C230.818 21.4014 230.267 21.3379 229.7 21.2988C229.144 21.2598 228.587 21.2402 228.03 21.2402C227.444 21.2402 226.897 21.2646 226.39 21.3135C225.882 21.3623 225.354 21.3867 224.808 21.3867C224.7 21.3867 224.573 21.3477 224.427 21.2695C224.29 21.1914 224.222 21.0889 224.222 20.9619C224.222 20.8838 224.246 20.8154 224.295 20.7568C224.344 20.6982 224.402 20.6543 224.471 20.625C224.549 20.5859 224.622 20.5566 224.69 20.5371C224.769 20.5176 224.832 20.5078 224.881 20.5078C224.988 20.5078 225.091 20.5127 225.188 20.5225C225.296 20.5322 225.408 20.542 225.525 20.5518C225.613 20.5713 225.706 20.5859 225.804 20.5957C225.901 20.6055 225.994 20.6104 226.082 20.6104C226.141 20.6104 226.204 20.5957 226.272 20.5664C226.351 20.5371 226.424 20.498 226.492 20.4492C226.57 20.3906 226.634 20.332 226.683 20.2734C226.731 20.2051 226.756 20.1367 226.756 20.0684Z" fill="#222222"/>
<path d="M209.5 14.4014C209.5 13.3662 209.671 12.4385 210.013 11.6182C210.364 10.7881 210.848 10.085 211.463 9.50879C212.078 8.93262 212.811 8.48828 213.66 8.17578C214.51 7.86328 215.442 7.70703 216.458 7.70703C216.683 7.70703 216.917 7.73145 217.161 7.78027C217.405 7.8291 217.649 7.89746 217.894 7.98535C218.147 8.06348 218.392 8.15625 218.626 8.26367C218.87 8.37109 219.095 8.4834 219.3 8.60059C220.462 9.24512 221.326 10.0801 221.893 11.1055C222.469 12.1309 222.757 13.3027 222.757 14.6211C222.757 15.5098 222.601 16.3643 222.288 17.1846C221.985 17.9951 221.521 18.7324 220.896 19.3965C220.271 20.041 219.559 20.5098 218.758 20.8027C217.957 21.0957 217.117 21.2422 216.238 21.2422C215.594 21.2422 214.959 21.1836 214.334 21.0664C213.719 20.9492 213.104 20.6709 212.488 20.2314C211.463 19.4893 210.706 18.6445 210.218 17.6973C209.739 16.75 209.5 15.6514 209.5 14.4014ZM212.005 14.4746C212.005 14.8652 212.039 15.2852 212.107 15.7344C212.176 16.1836 212.278 16.6377 212.415 17.0967C212.562 17.5459 212.742 17.9854 212.957 18.415C213.182 18.835 213.445 19.2109 213.748 19.543C214.051 19.8652 214.402 20.124 214.803 20.3193C215.203 20.5146 215.647 20.6123 216.136 20.6123C216.448 20.6123 216.722 20.583 216.956 20.5244C217.19 20.4561 217.4 20.3633 217.586 20.2461C217.781 20.1289 217.957 19.9922 218.113 19.8359C218.279 19.6699 218.44 19.4893 218.597 19.2939C218.87 18.9424 219.104 18.5566 219.3 18.1367C219.495 17.7168 219.656 17.2871 219.783 16.8477C219.91 16.4082 219.998 15.9736 220.047 15.5439C220.105 15.1045 220.135 14.6895 220.135 14.2988C220.135 13.9277 220.096 13.5176 220.018 13.0684C219.939 12.6094 219.812 12.1504 219.637 11.6914C219.471 11.2227 219.256 10.7686 218.992 10.3291C218.729 9.88965 218.411 9.49902 218.04 9.15723C217.757 8.88379 217.454 8.68359 217.132 8.55664C216.81 8.42969 216.546 8.36621 216.341 8.36621C215.882 8.36621 215.481 8.41504 215.14 8.5127C214.798 8.60059 214.495 8.7373 214.231 8.92285C213.968 9.1084 213.724 9.34277 213.499 9.62598C213.284 9.90918 213.064 10.2412 212.84 10.6221C212.459 11.2666 212.225 11.9062 212.137 12.541C212.049 13.1758 212.005 13.8203 212.005 14.4746Z" fill="#222222"/>
<path d="M200.311 17.1562C200.311 15.7695 200.345 14.4072 200.413 13.0693C200.481 11.7217 200.525 10.3496 200.545 8.95312C200.164 8.95312 199.798 8.98242 199.446 9.04102C199.104 9.09961 198.763 9.12891 198.421 9.12891C198.313 9.12891 198.206 9.11914 198.099 9.09961C197.991 9.08008 197.938 9.01172 197.938 8.89453C197.938 8.85547 197.947 8.82617 197.967 8.80664C197.996 8.78711 198.035 8.75293 198.084 8.7041C198.582 8.25488 199.061 7.81055 199.52 7.37109C199.988 6.93164 200.442 6.47266 200.882 5.99414C201.009 5.84766 201.141 5.68652 201.277 5.51074C201.424 5.33496 201.57 5.15918 201.717 4.9834C201.873 4.79785 202.029 4.6123 202.186 4.42676C202.352 4.24121 202.513 4.07031 202.669 3.91406C202.708 3.875 202.762 3.85547 202.83 3.85547C202.918 3.85547 202.977 3.91406 203.006 4.03125L202.83 7.25391C202.83 7.43945 202.869 7.53223 202.947 7.53223L206.727 7.25391C206.814 7.25391 206.883 7.27832 206.932 7.32715C206.98 7.37598 207.015 7.43945 207.034 7.51758C207.054 7.58594 207.063 7.65918 207.063 7.7373C207.073 7.81543 207.078 7.88379 207.078 7.94238C207.078 8.20605 207.044 8.40137 206.976 8.52832C206.907 8.64551 206.717 8.7041 206.404 8.7041H202.874C202.796 8.7041 202.737 8.75293 202.698 8.85059C202.679 8.88965 202.669 8.93359 202.669 8.98242V17.0684C202.669 17.4102 202.747 17.7715 202.903 18.1523C203.069 18.5332 203.323 18.8945 203.665 19.2363C203.821 19.3926 204.026 19.5244 204.28 19.6318C204.534 19.7393 204.778 19.793 205.013 19.793C205.54 19.793 205.96 19.7295 206.272 19.6025C206.585 19.4658 206.839 19.2949 207.034 19.0898C207.239 18.8848 207.405 18.665 207.532 18.4307C207.659 18.1865 207.806 17.957 207.972 17.7422C208.011 17.6445 208.055 17.5957 208.104 17.5957C208.152 17.5957 208.182 17.6299 208.191 17.6982C208.211 17.7568 208.221 17.8057 208.221 17.8447C208.221 18.0693 208.147 18.3379 208.001 18.6504C207.864 18.9531 207.679 19.2607 207.444 19.5732C207.22 19.876 206.966 20.1543 206.683 20.4082C206.399 20.6523 206.121 20.8281 205.848 20.9355C205.359 21.1406 204.842 21.2432 204.295 21.2432C203.67 21.2432 203.108 21.1162 202.61 20.8623C202.122 20.6084 201.707 20.2861 201.365 19.8955C201.023 19.4951 200.76 19.0557 200.574 18.5771C200.398 18.0889 200.311 17.6152 200.311 17.1562Z" fill="#222222"/>
<path d="M183.994 5.55273C183.994 5.06445 184.072 4.57129 184.229 4.07324C184.395 3.5752 184.614 3.10645 184.888 2.66699C185.161 2.21777 185.479 1.8125 185.84 1.45117C186.211 1.08008 186.602 0.782227 187.012 0.557617C187.402 0.333008 187.798 0.196289 188.198 0.147461C188.608 0.0986328 189.048 0.0742188 189.517 0.0742188C190.044 0.0742188 190.562 0.137695 191.069 0.264648C191.577 0.381836 192.07 0.567383 192.549 0.821289C192.588 0.850586 192.661 0.899414 192.769 0.967773C192.876 1.03613 192.993 1.11914 193.12 1.2168C193.257 1.31445 193.394 1.41699 193.53 1.52441C193.667 1.62207 193.789 1.71484 193.896 1.80273C193.936 1.8418 193.97 1.86133 193.999 1.86133C194.009 1.86133 194.033 1.8418 194.072 1.80273C194.102 1.76367 194.136 1.70508 194.175 1.62695C194.224 1.53906 194.272 1.45117 194.321 1.36328C194.37 1.26562 194.414 1.17773 194.453 1.09961C194.502 1.01172 194.536 0.953125 194.556 0.923828C194.575 0.875 194.6 0.831055 194.629 0.791992C194.668 0.75293 194.692 0.733398 194.702 0.733398C194.702 0.723633 194.722 0.71875 194.761 0.71875C194.819 0.71875 194.863 0.743164 194.893 0.791992C194.922 0.831055 194.941 0.879883 194.951 0.938477C194.971 0.99707 194.98 1.06055 194.98 1.12891C194.98 1.1875 194.98 1.23633 194.98 1.27539V1.37793C194.98 1.39746 194.976 1.43652 194.966 1.49512C194.966 1.55371 194.961 1.62207 194.951 1.7002C194.941 1.76855 194.932 1.83203 194.922 1.89062C194.922 1.94922 194.917 1.98828 194.907 2.00781V5.62598C194.907 5.7041 194.873 5.75781 194.805 5.78711C194.736 5.81641 194.678 5.83105 194.629 5.83105C194.521 5.83105 194.458 5.81152 194.438 5.77246C194.419 5.72363 194.39 5.64062 194.351 5.52344C194.243 5.26953 194.17 5.01074 194.131 4.74707C194.102 4.47363 194.033 4.19531 193.926 3.91211C193.818 3.58984 193.638 3.24316 193.384 2.87207C193.13 2.49121 192.837 2.13965 192.505 1.81738C192.173 1.49512 191.826 1.22656 191.465 1.01172C191.104 0.796875 190.757 0.689453 190.425 0.689453C189.81 0.689453 189.336 0.733398 189.004 0.821289C188.506 0.967773 188.086 1.20703 187.744 1.53906C187.412 1.86133 187.104 2.22754 186.821 2.6377C186.743 2.75488 186.67 2.90625 186.602 3.0918C186.533 3.26758 186.475 3.45801 186.426 3.66309C186.387 3.8584 186.353 4.04883 186.323 4.23438C186.304 4.41992 186.294 4.57129 186.294 4.68848C186.294 5.15723 186.392 5.58203 186.587 5.96289C186.792 6.34375 187.056 6.68555 187.378 6.98828C187.7 7.28125 188.062 7.54492 188.462 7.7793C188.872 8.00391 189.282 8.19922 189.692 8.36523C190.044 8.51172 190.405 8.65332 190.776 8.79004C191.157 8.92676 191.528 9.06836 191.89 9.21484C192.261 9.36133 192.612 9.52246 192.944 9.69824C193.286 9.87402 193.589 10.0742 193.853 10.2988C194.185 10.5625 194.512 10.8896 194.834 11.2803C195.156 11.6611 195.444 12.0811 195.698 12.54C195.962 12.9893 196.172 13.458 196.328 13.9463C196.484 14.4346 196.562 14.9131 196.562 15.3818C196.562 16.29 196.401 17.1104 196.079 17.8428C195.767 18.5752 195.327 19.2002 194.761 19.7178C194.204 20.2256 193.545 20.6211 192.783 20.9043C192.021 21.1777 191.201 21.3145 190.322 21.3145C189.805 21.3145 189.302 21.29 188.813 21.2412C188.335 21.1826 187.876 21.085 187.437 20.9482C186.997 20.8115 186.582 20.6211 186.191 20.377C185.801 20.1328 185.43 19.8203 185.078 19.4395C185.039 19.3906 184.985 19.3613 184.917 19.3516C184.858 19.3418 184.81 19.3369 184.771 19.3369C184.604 19.3369 184.487 19.3809 184.419 19.4688C184.351 19.5566 184.292 19.6592 184.243 19.7764C184.204 19.8838 184.155 19.9814 184.097 20.0693C184.038 20.1572 183.936 20.2012 183.789 20.2012L184.17 16.1729C184.189 16.0459 184.204 15.8945 184.214 15.7188C184.224 15.543 184.248 15.4258 184.287 15.3672C184.316 15.2305 184.37 15.1621 184.448 15.1621C184.565 15.1621 184.648 15.2354 184.697 15.3818C184.756 15.5479 184.805 15.7139 184.844 15.8799C184.883 16.0361 184.917 16.1924 184.946 16.3486C184.976 16.5049 185.005 16.6514 185.034 16.7881C185.073 16.9248 185.122 17.0469 185.181 17.1543C185.405 17.5547 185.62 17.9111 185.825 18.2236C186.04 18.5361 186.274 18.8242 186.528 19.0879C186.792 19.3516 187.095 19.5908 187.437 19.8057C187.778 20.0205 188.193 20.2207 188.682 20.4062C188.984 20.5137 189.272 20.5771 189.546 20.5967C189.819 20.6064 190.068 20.6113 190.293 20.6113C190.566 20.6113 190.84 20.5625 191.113 20.4648C191.387 20.3574 191.714 20.1963 192.095 19.9814C192.651 19.6494 193.096 19.2539 193.428 18.7949C193.76 18.3262 193.926 17.7402 193.926 17.0371C193.926 16.5391 193.833 16.0752 193.647 15.6455C193.472 15.2158 193.228 14.8154 192.915 14.4443C192.466 13.9463 192.036 13.5605 191.626 13.2871C191.216 13.0039 190.811 12.7793 190.41 12.6133C190.02 12.4473 189.629 12.3057 189.238 12.1885C188.848 12.0713 188.447 11.9248 188.037 11.749C187.637 11.5732 187.227 11.3389 186.807 11.0459C186.387 10.7529 185.947 10.3428 185.488 9.81543C184.492 8.64355 183.994 7.22266 183.994 5.55273Z" fill="#222222"/>
<path d="M165.521 13.873L165.198 20.5527C165.198 20.6016 165.223 20.626 165.271 20.626H166.736C166.902 20.626 167.044 20.6602 167.161 20.7285C167.288 20.7871 167.352 20.875 167.352 20.9922C167.352 21.1191 167.288 21.1973 167.161 21.2266C167.034 21.2559 166.927 21.2705 166.839 21.2705C166.604 21.2705 166.399 21.2656 166.224 21.2559C166.058 21.2559 165.877 21.2559 165.682 21.2559C165.486 21.2559 165.257 21.251 164.993 21.2412C164.739 21.2412 164.402 21.2412 163.982 21.2412C163.611 21.2412 163.177 21.2461 162.679 21.2559C162.19 21.2754 161.702 21.2852 161.214 21.2852C161.019 21.2852 160.838 21.2705 160.672 21.2412C160.516 21.2217 160.438 21.1387 160.438 20.9922C160.438 20.875 160.462 20.7871 160.511 20.7285C160.56 20.6602 160.652 20.626 160.789 20.626H162.356C162.444 20.626 162.552 20.6016 162.679 20.5527C162.806 20.4941 162.869 20.4111 162.869 20.3037L163.602 4.46875C163.602 4.33203 163.597 4.2002 163.587 4.07324C163.587 3.93652 163.572 3.81445 163.543 3.70703C163.494 3.41406 163.396 3.14551 163.25 2.90137C163.104 2.65723 162.874 2.53516 162.562 2.53516C162.405 2.53516 162.273 2.55957 162.166 2.6084C162.068 2.64746 161.956 2.66699 161.829 2.66699C161.8 2.66699 161.727 2.65723 161.609 2.6377C161.502 2.61816 161.385 2.58887 161.258 2.5498C161.141 2.51074 161.033 2.45703 160.936 2.38867C160.838 2.32031 160.789 2.24219 160.789 2.1543C160.789 2.01758 160.828 1.91504 160.906 1.84668C160.994 1.76855 161.097 1.70996 161.214 1.6709C161.331 1.63184 161.453 1.60742 161.58 1.59766C161.707 1.57812 161.814 1.55371 161.902 1.52441C162.547 1.40723 163.157 1.26562 163.733 1.09961C164.31 0.923828 164.905 0.728516 165.521 0.513672C165.53 0.513672 165.55 0.508789 165.579 0.499023C165.599 0.499023 165.618 0.499023 165.638 0.499023C165.667 0.489258 165.696 0.484375 165.726 0.484375C165.853 0.484375 165.936 0.513672 165.975 0.572266C166.014 0.621094 166.043 0.669922 166.062 0.71875C166.092 0.728516 166.106 0.811523 166.106 0.967773C166.106 1.0166 166.097 1.08008 166.077 1.1582C166.067 1.22656 166.062 1.31445 166.062 1.42188L165.55 12.7744C165.55 13.0283 165.628 13.1553 165.784 13.1553C165.872 13.1553 165.94 13.1357 165.989 13.0967C166.038 13.0576 166.097 13.0186 166.165 12.9795C166.497 12.7061 166.883 12.3887 167.322 12.0273C167.762 11.666 168.187 11.3145 168.597 10.9727C169.017 10.6211 169.383 10.3135 169.695 10.0498C170.018 9.78613 170.218 9.61523 170.296 9.53711C170.374 9.45898 170.413 9.35645 170.413 9.22949C170.413 9.03418 170.311 8.89258 170.105 8.80469C170.076 8.77539 170.018 8.74121 169.93 8.70215C169.842 8.65332 169.744 8.60449 169.637 8.55566C169.529 8.50684 169.417 8.46289 169.3 8.42383C169.192 8.375 169.1 8.34082 169.021 8.32129C168.934 8.28223 168.772 8.25293 168.538 8.2334C168.304 8.21387 168.084 8.18457 167.879 8.14551C167.742 8.11621 167.674 8.02832 167.674 7.88184C167.674 7.77441 167.713 7.70117 167.791 7.66211C167.879 7.61328 167.977 7.58887 168.084 7.58887C168.172 7.58887 168.348 7.59375 168.611 7.60352C168.885 7.61328 169.178 7.62305 169.49 7.63281C169.812 7.64258 170.125 7.65234 170.428 7.66211C170.74 7.67188 170.979 7.67676 171.146 7.67676C171.536 7.67676 171.897 7.67188 172.229 7.66211C172.571 7.65234 172.898 7.64258 173.211 7.63281C173.533 7.62305 173.851 7.61328 174.163 7.60352C174.476 7.59375 174.808 7.58887 175.159 7.58887C175.345 7.58887 175.438 7.65234 175.438 7.7793C175.438 7.95508 175.291 8.08203 174.998 8.16016C174.715 8.23828 174.471 8.30664 174.266 8.36523C174.07 8.42383 173.89 8.4873 173.724 8.55566C173.558 8.61426 173.387 8.68262 173.211 8.76074C173.045 8.8291 172.85 8.91699 172.625 9.02441C172.303 9.18066 171.985 9.3418 171.673 9.50781C171.36 9.66406 171.087 9.8252 170.853 9.99121C170.667 10.1279 170.501 10.25 170.354 10.3574C170.218 10.4648 170.081 10.5723 169.944 10.6797C169.808 10.7871 169.661 10.8994 169.505 11.0166C169.358 11.124 169.188 11.2461 168.992 11.3828C168.914 11.4414 168.826 11.5049 168.729 11.5732C168.641 11.6416 168.553 11.7148 168.465 11.793C168.377 11.8613 168.304 11.9346 168.245 12.0127C168.187 12.0908 168.157 12.1689 168.157 12.2471C168.157 12.3252 168.177 12.3838 168.216 12.4229C168.431 12.7158 168.719 13.1162 169.08 13.624C169.451 14.1318 169.856 14.6885 170.296 15.2939C170.735 15.8896 171.189 16.5098 171.658 17.1543C172.127 17.7891 172.566 18.3896 172.977 18.9561C173.162 19.2197 173.348 19.459 173.533 19.6738C173.729 19.8789 173.934 20.0547 174.148 20.2012C174.373 20.3379 174.622 20.4502 174.896 20.5381C175.169 20.6162 175.491 20.665 175.862 20.6846C175.97 20.6846 176.028 20.7188 176.038 20.7871C176.058 20.8555 176.067 20.9238 176.067 20.9922C176.067 21.041 176.048 21.0898 176.009 21.1387C175.979 21.1875 175.931 21.2217 175.862 21.2412H175.027C174.812 21.2412 174.583 21.2363 174.339 21.2266C174.095 21.2168 173.851 21.207 173.606 21.1973C173.372 21.1777 173.143 21.1631 172.918 21.1533C172.703 21.1436 172.513 21.1387 172.347 21.1387C171.858 21.1387 171.385 21.1631 170.926 21.2119C170.477 21.2607 170.027 21.2852 169.578 21.2852C169.5 21.2852 169.412 21.2803 169.314 21.2705C169.227 21.2705 169.139 21.2607 169.051 21.2412C168.973 21.2314 168.904 21.207 168.846 21.168C168.797 21.1289 168.772 21.0703 168.772 20.9922C168.772 20.7383 168.899 20.6113 169.153 20.6113C169.349 20.6113 169.544 20.6162 169.739 20.626C169.935 20.626 170.159 20.626 170.413 20.626C170.54 20.626 170.652 20.6064 170.75 20.5674C170.848 20.5186 170.896 20.4404 170.896 20.333C170.896 20.2158 170.867 20.0938 170.809 19.9668C170.76 19.8301 170.696 19.6982 170.618 19.5713C170.54 19.4346 170.452 19.3076 170.354 19.1904C170.267 19.0732 170.184 18.9707 170.105 18.8828C169.773 18.4434 169.422 17.9795 169.051 17.4912C168.68 17.0029 168.309 16.5244 167.938 16.0557C167.576 15.5869 167.225 15.1523 166.883 14.752C166.551 14.3516 166.258 14.0244 166.004 13.7705C165.945 13.7021 165.872 13.668 165.784 13.668C165.608 13.668 165.521 13.7363 165.521 13.873Z" fill="#222222"/>
<path d="M146.336 14.4014C146.336 13.3662 146.507 12.4385 146.849 11.6182C147.2 10.7881 147.684 10.085 148.299 9.50879C148.914 8.93262 149.646 8.48828 150.496 8.17578C151.346 7.86328 152.278 7.70703 153.294 7.70703C153.519 7.70703 153.753 7.73145 153.997 7.78027C154.241 7.8291 154.485 7.89746 154.729 7.98535C154.983 8.06348 155.228 8.15625 155.462 8.26367C155.706 8.37109 155.931 8.4834 156.136 8.60059C157.298 9.24512 158.162 10.0801 158.729 11.1055C159.305 12.1309 159.593 13.3027 159.593 14.6211C159.593 15.5098 159.437 16.3643 159.124 17.1846C158.821 17.9951 158.357 18.7324 157.732 19.3965C157.107 20.041 156.395 20.5098 155.594 20.8027C154.793 21.0957 153.953 21.2422 153.074 21.2422C152.43 21.2422 151.795 21.1836 151.17 21.0664C150.555 20.9492 149.939 20.6709 149.324 20.2314C148.299 19.4893 147.542 18.6445 147.054 17.6973C146.575 16.75 146.336 15.6514 146.336 14.4014ZM148.841 14.4746C148.841 14.8652 148.875 15.2852 148.943 15.7344C149.012 16.1836 149.114 16.6377 149.251 17.0967C149.397 17.5459 149.578 17.9854 149.793 18.415C150.018 18.835 150.281 19.2109 150.584 19.543C150.887 19.8652 151.238 20.124 151.639 20.3193C152.039 20.5146 152.483 20.6123 152.972 20.6123C153.284 20.6123 153.558 20.583 153.792 20.5244C154.026 20.4561 154.236 20.3633 154.422 20.2461C154.617 20.1289 154.793 19.9922 154.949 19.8359C155.115 19.6699 155.276 19.4893 155.433 19.2939C155.706 18.9424 155.94 18.5566 156.136 18.1367C156.331 17.7168 156.492 17.2871 156.619 16.8477C156.746 16.4082 156.834 15.9736 156.883 15.5439C156.941 15.1045 156.971 14.6895 156.971 14.2988C156.971 13.9277 156.932 13.5176 156.854 13.0684C156.775 12.6094 156.648 12.1504 156.473 11.6914C156.307 11.2227 156.092 10.7686 155.828 10.3291C155.564 9.88965 155.247 9.49902 154.876 9.15723C154.593 8.88379 154.29 8.68359 153.968 8.55664C153.646 8.42969 153.382 8.36621 153.177 8.36621C152.718 8.36621 152.317 8.41504 151.976 8.5127C151.634 8.60059 151.331 8.7373 151.067 8.92285C150.804 9.1084 150.56 9.34277 150.335 9.62598C150.12 9.90918 149.9 10.2412 149.676 10.6221C149.295 11.2666 149.061 11.9062 148.973 12.541C148.885 13.1758 148.841 13.8203 148.841 14.4746Z" fill="#222222"/>
<path d="M131.102 14.4014C131.102 13.3662 131.272 12.4385 131.614 11.6182C131.966 10.7881 132.449 10.085 133.064 9.50879C133.68 8.93262 134.412 8.48828 135.262 8.17578C136.111 7.86328 137.044 7.70703 138.06 7.70703C138.284 7.70703 138.519 7.73145 138.763 7.78027C139.007 7.8291 139.251 7.89746 139.495 7.98535C139.749 8.06348 139.993 8.15625 140.228 8.26367C140.472 8.37109 140.696 8.4834 140.901 8.60059C142.063 9.24512 142.928 10.0801 143.494 11.1055C144.07 12.1309 144.358 13.3027 144.358 14.6211C144.358 15.5098 144.202 16.3643 143.89 17.1846C143.587 17.9951 143.123 18.7324 142.498 19.3965C141.873 20.041 141.16 20.5098 140.359 20.8027C139.559 21.0957 138.719 21.2422 137.84 21.2422C137.195 21.2422 136.561 21.1836 135.936 21.0664C135.32 20.9492 134.705 20.6709 134.09 20.2314C133.064 19.4893 132.308 18.6445 131.819 17.6973C131.341 16.75 131.102 15.6514 131.102 14.4014ZM133.606 14.4746C133.606 14.8652 133.641 15.2852 133.709 15.7344C133.777 16.1836 133.88 16.6377 134.017 17.0967C134.163 17.5459 134.344 17.9854 134.559 18.415C134.783 18.835 135.047 19.2109 135.35 19.543C135.652 19.8652 136.004 20.124 136.404 20.3193C136.805 20.5146 137.249 20.6123 137.737 20.6123C138.05 20.6123 138.323 20.583 138.558 20.5244C138.792 20.4561 139.002 20.3633 139.188 20.2461C139.383 20.1289 139.559 19.9922 139.715 19.8359C139.881 19.6699 140.042 19.4893 140.198 19.2939C140.472 18.9424 140.706 18.5566 140.901 18.1367C141.097 17.7168 141.258 17.2871 141.385 16.8477C141.512 16.4082 141.6 15.9736 141.648 15.5439C141.707 15.1045 141.736 14.6895 141.736 14.2988C141.736 13.9277 141.697 13.5176 141.619 13.0684C141.541 12.6094 141.414 12.1504 141.238 11.6914C141.072 11.2227 140.857 10.7686 140.594 10.3291C140.33 9.88965 140.013 9.49902 139.642 9.15723C139.358 8.88379 139.056 8.68359 138.733 8.55664C138.411 8.42969 138.147 8.36621 137.942 8.36621C137.483 8.36621 137.083 8.41504 136.741 8.5127C136.399 8.60059 136.097 8.7373 135.833 8.92285C135.569 9.1084 135.325 9.34277 135.101 9.62598C134.886 9.90918 134.666 10.2412 134.441 10.6221C134.061 11.2666 133.826 11.9062 133.738 12.541C133.65 13.1758 133.606 13.8203 133.606 14.4746Z" fill="#222222"/>
<path d="M111.398 0.263672H116.32C116.711 0.263672 117.067 0.249023 117.39 0.219727C117.712 0.19043 118.068 0.161133 118.459 0.131836C118.859 0.102539 119.338 0.0732422 119.895 0.0439453C120.451 0.0146484 121.159 0 122.019 0C123.005 0 123.859 0.141602 124.582 0.424805C125.305 0.698242 125.9 1.06934 126.369 1.53809C126.838 1.99707 127.185 2.52441 127.409 3.12012C127.634 3.71582 127.746 4.32617 127.746 4.95117C127.746 5.66406 127.658 6.2793 127.482 6.79688C127.307 7.30469 127.053 7.75391 126.721 8.14453C126.389 8.53516 125.983 8.87695 125.505 9.16992C125.026 9.46289 124.489 9.74609 123.894 10.0195C123.874 10.0195 123.845 10.0293 123.806 10.0488C123.767 10.0586 123.747 10.0732 123.747 10.0928C123.747 10.1221 123.796 10.1562 123.894 10.1953C124.694 10.4883 125.383 10.8203 125.959 11.1914C126.545 11.5527 127.028 11.9727 127.409 12.4512C127.79 12.9199 128.073 13.457 128.259 14.0625C128.444 14.668 128.537 15.3564 128.537 16.1279C128.537 16.4307 128.488 16.7529 128.391 17.0947C128.293 17.4365 128.156 17.7783 127.98 18.1201C127.805 18.4521 127.595 18.7744 127.351 19.0869C127.116 19.3896 126.853 19.6582 126.56 19.8926C125.954 20.3809 125.144 20.7373 124.128 20.9619C123.122 21.1768 121.911 21.2842 120.495 21.2842C120.183 21.2842 119.88 21.2793 119.587 21.2695C119.294 21.2695 118.986 21.2646 118.664 21.2549C118.352 21.2549 118.02 21.25 117.668 21.2402C117.316 21.2402 116.926 21.2402 116.496 21.2402C116.066 21.2402 115.651 21.2451 115.251 21.2549C114.86 21.2646 114.47 21.2744 114.079 21.2842C113.688 21.2939 113.288 21.3037 112.878 21.3135C112.468 21.3232 112.033 21.333 111.574 21.3428C111.574 21.2549 111.589 21.1523 111.618 21.0352C111.657 20.918 111.721 20.835 111.809 20.7861C112.111 20.6592 112.434 20.5713 112.775 20.5225C113.117 20.4736 113.43 20.4053 113.713 20.3174C114.006 20.2197 114.245 20.0684 114.431 19.8633C114.626 19.6484 114.724 19.3115 114.724 18.8525V2.3877C114.724 2.27051 114.719 2.15332 114.709 2.03613C114.709 1.90918 114.694 1.79199 114.665 1.68457C114.636 1.56738 114.592 1.46484 114.533 1.37695C114.475 1.2793 114.392 1.20117 114.284 1.14258C114.147 1.07422 113.996 1.03027 113.83 1.01074C113.674 0.981445 113.488 0.957031 113.273 0.9375C113.059 0.917969 112.814 0.888672 112.541 0.849609C112.268 0.800781 111.945 0.722656 111.574 0.615234C111.457 0.585938 111.398 0.527344 111.398 0.439453V0.263672ZM117.785 11.2061V19.2334C118.166 19.6729 118.576 20.0244 119.016 20.2881C119.455 20.5518 119.968 20.6836 120.554 20.6836C121.247 20.6836 121.853 20.5273 122.37 20.2148C122.897 19.9023 123.332 19.502 123.674 19.0137C124.025 18.5254 124.289 17.9785 124.465 17.373C124.641 16.7578 124.729 16.1523 124.729 15.5566C124.729 14.873 124.597 14.2334 124.333 13.6377C124.069 13.0322 123.713 12.5098 123.264 12.0703C122.814 11.6309 122.292 11.2842 121.696 11.0303C121.11 10.7764 120.49 10.6494 119.836 10.6494H119.426C119.338 10.6494 119.196 10.6494 119.001 10.6494C118.815 10.6494 118.571 10.6592 118.269 10.6787C117.946 10.6787 117.785 10.8545 117.785 11.2061ZM117.785 0.761719V9.65332C117.785 9.76074 117.81 9.85352 117.858 9.93164C117.917 10 117.985 10.0537 118.063 10.0928C118.142 10.1318 118.22 10.1611 118.298 10.1807C118.376 10.1904 118.439 10.1953 118.488 10.1953C119.25 10.1953 119.904 10.1172 120.451 9.96094C121.008 9.80469 121.472 9.60938 121.843 9.375C122.116 9.20898 122.38 8.99414 122.634 8.73047C122.897 8.4668 123.127 8.16406 123.322 7.82227C123.527 7.48047 123.688 7.10938 123.806 6.70898C123.933 6.29883 123.996 5.86426 123.996 5.40527C123.996 4.13574 123.781 3.14453 123.352 2.43164C122.932 1.70898 122.258 1.20605 121.33 0.922852C120.959 0.805664 120.563 0.727539 120.144 0.688477C119.724 0.639648 119.26 0.615234 118.752 0.615234C118.576 0.615234 118.405 0.629883 118.239 0.65918C118.073 0.678711 117.922 0.712891 117.785 0.761719Z" fill="#222222"/>
<path d="M94.2188 19.1338C94.2188 18.8701 94.2773 18.6113 94.3945 18.3574C94.5215 18.0938 94.6143 17.8496 94.6729 17.625C94.6729 17.5859 94.6826 17.5078 94.7021 17.3906C94.7314 17.2637 94.7607 17.1318 94.79 16.9951C94.8291 16.8486 94.8633 16.7168 94.8926 16.5996C94.9219 16.4824 94.9414 16.3994 94.9512 16.3506C94.9805 16.2139 95.0488 16.1455 95.1562 16.1455C95.3125 16.1455 95.3955 16.2383 95.4053 16.4238C95.4248 16.5605 95.4297 16.6924 95.4199 16.8193C95.4199 16.9365 95.4346 17.0781 95.4639 17.2441C95.5518 17.7031 95.6738 18.1377 95.8301 18.5479C95.9961 18.9482 96.2061 19.3047 96.46 19.6172C96.7236 19.9297 97.0361 20.1787 97.3975 20.3643C97.7686 20.54 98.2031 20.6279 98.7012 20.6279C99.0625 20.6279 99.4092 20.5742 99.7412 20.4668C100.073 20.3496 100.366 20.1885 100.62 19.9834C100.884 19.7783 101.089 19.5244 101.235 19.2217C101.392 18.9189 101.47 18.5771 101.47 18.1963C101.47 17.6006 101.362 17.1123 101.147 16.7314C100.942 16.3506 100.669 16.0332 100.327 15.7793C99.9951 15.5254 99.6094 15.3203 99.1699 15.1641C98.7402 14.998 98.2959 14.8418 97.8369 14.6953C97.3877 14.5391 96.9434 14.373 96.5039 14.1973C96.0742 14.0117 95.6885 13.7725 95.3467 13.4795C95.0146 13.1768 94.7412 12.8008 94.5264 12.3516C94.3213 11.9023 94.2188 11.3359 94.2188 10.6523C94.2188 10.2324 94.292 9.87109 94.4385 9.56836C94.585 9.25586 94.7168 9.00684 94.834 8.82129C94.9805 8.59668 95.166 8.37207 95.3906 8.14746C95.6152 7.91309 95.874 7.70801 96.167 7.53223C96.46 7.34668 96.7871 7.19531 97.1484 7.07812C97.5195 6.96094 97.9199 6.90234 98.3496 6.90234C98.7305 6.90234 99.1406 6.98047 99.5801 7.13672C100.029 7.2832 100.42 7.49316 100.752 7.7666C100.859 7.85449 100.967 7.95215 101.074 8.05957C101.182 8.16699 101.289 8.2207 101.396 8.2207C101.533 8.2207 101.646 8.17676 101.733 8.08887C101.821 7.99121 101.909 7.86426 101.997 7.70801C102.017 7.68848 102.036 7.67871 102.056 7.67871C102.085 7.66895 102.109 7.66406 102.129 7.66406C102.158 7.66406 102.178 7.69336 102.188 7.75195C102.207 7.80078 102.222 7.85938 102.231 7.92773C102.251 7.98633 102.261 8.0498 102.261 8.11816C102.271 8.17676 102.275 8.2207 102.275 8.25C102.275 8.2793 102.261 8.37695 102.231 8.54297C102.212 8.70898 102.178 8.90918 102.129 9.14355C102.09 9.36816 102.041 9.6123 101.982 9.87598C101.934 10.1299 101.875 10.3691 101.807 10.5938C101.748 10.8086 101.685 10.9893 101.616 11.1357C101.558 11.2822 101.499 11.3555 101.44 11.3555C101.421 11.3555 101.401 11.3506 101.382 11.3408C101.343 11.3213 101.323 11.3018 101.323 11.2822C101.245 11.1455 101.191 11.0283 101.162 10.9307C101.133 10.833 101.108 10.7402 101.089 10.6523C101.079 10.5645 101.069 10.4766 101.06 10.3887C101.06 10.291 101.045 10.1836 101.016 10.0664C100.996 9.98828 100.977 9.91504 100.957 9.84668C100.938 9.76855 100.913 9.7002 100.884 9.6416C100.757 9.31934 100.625 9.05566 100.488 8.85059C100.352 8.64551 100.161 8.43555 99.917 8.2207C99.751 8.05469 99.5996 7.92773 99.4629 7.83984C99.3359 7.74219 99.1992 7.67383 99.0527 7.63477C98.9062 7.58594 98.7354 7.55664 98.54 7.54688C98.3447 7.53711 98.1055 7.53223 97.8223 7.53223C97.5488 7.53223 97.2949 7.5957 97.0605 7.72266C96.8359 7.83984 96.6406 8.00098 96.4746 8.20605C96.3086 8.41113 96.1768 8.65039 96.0791 8.92383C95.9912 9.1875 95.9473 9.46582 95.9473 9.75879C95.9473 10.2471 96.0498 10.6475 96.2549 10.96C96.4697 11.2627 96.748 11.5215 97.0898 11.7363C97.4414 11.9414 97.8369 12.1172 98.2764 12.2637C98.7158 12.4102 99.1602 12.5615 99.6094 12.7178C100.068 12.874 100.518 13.0596 100.957 13.2744C101.396 13.4795 101.787 13.7529 102.129 14.0947C102.48 14.4268 102.759 14.8467 102.964 15.3545C103.179 15.8525 103.286 16.4727 103.286 17.2148C103.286 17.7031 103.159 18.1963 102.905 18.6943C102.651 19.1826 102.339 19.6416 101.968 20.0713C101.802 20.2666 101.577 20.4473 101.294 20.6133C101.021 20.7695 100.713 20.9062 100.371 21.0234C100.039 21.1406 99.6875 21.2285 99.3164 21.2871C98.9551 21.3555 98.5986 21.3896 98.2471 21.3896C97.8955 21.3896 97.4902 21.3115 97.0312 21.1553C96.5723 20.999 96.1328 20.8037 95.7129 20.5693C95.293 20.335 94.9365 20.0908 94.6436 19.8369C94.3604 19.5732 94.2188 19.3389 94.2188 19.1338Z" fill="#222222"/>
<path d="M83.5527 20.0684V12.041C83.5527 11.748 83.5479 11.4404 83.5381 11.1182C83.5381 10.7861 83.5186 10.4785 83.4795 10.1953C83.4502 9.91211 83.3965 9.67285 83.3184 9.47754C83.25 9.27246 83.1523 9.14062 83.0254 9.08203C82.791 8.97461 82.5029 8.9209 82.1611 8.9209C81.9365 8.9209 81.7266 8.93066 81.5312 8.9502C81.3457 8.96973 81.1748 8.97949 81.0186 8.97949C80.9697 8.97949 80.9258 8.95996 80.8867 8.9209C80.8477 8.88184 80.8281 8.84277 80.8281 8.80371C80.8281 8.69629 80.8623 8.63281 80.9307 8.61328C81.2334 8.4375 81.541 8.31543 81.8535 8.24707C82.166 8.17871 82.4883 8.09082 82.8203 7.9834C83.1133 7.89551 83.4111 7.80273 83.7139 7.70508C84.0166 7.60742 84.2949 7.48047 84.5488 7.32422C84.7246 7.23633 84.8857 7.14355 85.0322 7.0459C85.1787 6.94824 85.3643 6.89941 85.5889 6.89941C85.6475 6.89941 85.7012 6.93848 85.75 7.0166C85.8086 7.08496 85.8379 7.13867 85.8379 7.17773V7.9834C85.8379 8.06152 85.8379 8.1543 85.8379 8.26172C85.8477 8.36914 85.8525 8.47656 85.8525 8.58398C85.8623 8.69141 85.8721 8.79395 85.8818 8.8916C85.8916 8.97949 85.9014 9.04297 85.9111 9.08203C85.9209 9.12109 85.9355 9.15039 85.9551 9.16992L85.9697 9.18457C86.0283 9.18457 86.082 9.15527 86.1309 9.09668C86.1797 9.02832 86.2334 8.94531 86.292 8.84766C86.3604 8.74023 86.4336 8.62305 86.5117 8.49609C86.5996 8.36914 86.7119 8.24219 86.8486 8.11523C87.0342 7.92969 87.2393 7.75879 87.4639 7.60254C87.6982 7.43652 87.9375 7.29492 88.1816 7.17773C88.4355 7.06055 88.6895 6.96777 88.9434 6.89941C89.207 6.83105 89.4658 6.79688 89.7197 6.79688C90.0908 6.79688 90.4717 6.83105 90.8623 6.89941C91.2529 6.95801 91.6045 7.07031 91.917 7.23633C92.2393 7.39258 92.5029 7.61719 92.708 7.91016C92.9131 8.20312 93.0156 8.57422 93.0156 9.02344C93.0156 9.26758 92.9619 9.49219 92.8545 9.69727C92.7568 9.90234 92.6201 10.0781 92.4443 10.2246C92.2783 10.3711 92.083 10.4883 91.8584 10.5762C91.6436 10.6543 91.4189 10.6934 91.1846 10.6934C91.0283 10.6934 90.8623 10.6689 90.6865 10.6201C90.5107 10.5713 90.3984 10.5127 90.3496 10.4443C90.0469 10.1709 89.8369 9.7998 89.7197 9.33105C89.6709 9.06738 89.6367 8.84766 89.6172 8.67188C89.6074 8.48633 89.5684 8.34473 89.5 8.24707C89.4414 8.13965 89.3389 8.06641 89.1924 8.02734C89.0459 7.97852 88.8164 7.9541 88.5039 7.9541C88.25 7.9541 87.9863 8.02246 87.7129 8.15918C87.4492 8.28613 87.2002 8.45215 86.9658 8.65723C86.7412 8.8623 86.5459 9.0918 86.3799 9.3457C86.2139 9.58984 86.1162 9.8291 86.0869 10.0635C86.0381 10.2783 86.0088 10.5127 85.999 10.7666C85.999 11.0107 85.999 11.2646 85.999 11.5283V20.332C86.0576 20.459 86.165 20.542 86.3213 20.5811C86.4775 20.6104 86.6533 20.625 86.8486 20.625C86.9072 20.625 86.9854 20.625 87.083 20.625C87.1904 20.6152 87.2979 20.6104 87.4053 20.6104C87.5225 20.6006 87.625 20.5957 87.7129 20.5957C87.8008 20.5859 87.8594 20.5811 87.8887 20.5811C88.1133 20.5811 88.2939 20.6104 88.4307 20.6689C88.5771 20.7178 88.6504 20.8301 88.6504 21.0059C88.6504 21.123 88.5918 21.2305 88.4746 21.3281C88.3672 21.4258 88.2598 21.4795 88.1523 21.4893C87.6152 21.4014 87.0635 21.3379 86.4971 21.2988C85.9404 21.2598 85.3838 21.2402 84.8271 21.2402C84.2412 21.2402 83.6943 21.2646 83.1865 21.3135C82.6787 21.3623 82.1514 21.3867 81.6045 21.3867C81.4971 21.3867 81.3701 21.3477 81.2236 21.2695C81.0869 21.1914 81.0186 21.0889 81.0186 20.9619C81.0186 20.8838 81.043 20.8154 81.0918 20.7568C81.1406 20.6982 81.1992 20.6543 81.2676 20.625C81.3457 20.5859 81.4189 20.5566 81.4873 20.5371C81.5654 20.5176 81.6289 20.5078 81.6777 20.5078C81.7852 20.5078 81.8877 20.5127 81.9854 20.5225C82.0928 20.5322 82.2051 20.542 82.3223 20.5518C82.4102 20.5713 82.5029 20.5859 82.6006 20.5957C82.6982 20.6055 82.791 20.6104 82.8789 20.6104C82.9375 20.6104 83.001 20.5957 83.0693 20.5664C83.1475 20.5371 83.2207 20.498 83.2891 20.4492C83.3672 20.3906 83.4307 20.332 83.4795 20.2734C83.5283 20.2051 83.5527 20.1367 83.5527 20.0684Z" fill="#222222"/>
<path d="M79.4072 11.8662H69.2705C69.1631 11.9053 69.0996 11.9492 69.0801 11.998C69.0605 12.0371 69.041 12.1201 69.0215 12.2471C69.002 12.335 68.9824 12.5254 68.9629 12.8184C68.9531 13.1113 68.9482 13.4434 68.9482 13.8145C68.9482 14.1855 68.9922 14.542 69.0801 14.8838C69.168 15.2256 69.2656 15.5625 69.373 15.8945C69.7832 17.1055 70.4229 18.0283 71.292 18.6631C72.1709 19.2979 73.3232 19.6152 74.749 19.6152C74.9639 19.6152 75.1982 19.5762 75.4521 19.498C75.7061 19.4199 75.96 19.3223 76.2139 19.2051C76.4678 19.0781 76.7119 18.9316 76.9463 18.7656C77.1807 18.5996 77.3857 18.4287 77.5615 18.2529C77.6885 18.1357 77.791 18.0039 77.8691 17.8574C77.957 17.7012 78.0645 17.5107 78.1914 17.2861C78.2305 17.2471 78.2842 17.2178 78.3525 17.1982C78.4209 17.1689 78.4795 17.1543 78.5283 17.1543C78.7041 17.1543 78.8213 17.2129 78.8799 17.3301C78.9482 17.4375 78.9824 17.5742 78.9824 17.7402C78.9824 17.7891 78.9629 17.8574 78.9238 17.9453C78.8945 18.0234 78.8555 18.1064 78.8066 18.1943C78.7676 18.2822 78.7188 18.3701 78.6602 18.458C78.6113 18.5361 78.5723 18.5947 78.543 18.6338C78.1719 19.1904 77.7031 19.6836 77.1367 20.1133C76.5703 20.5332 75.8916 20.875 75.1006 21.1387C74.9248 21.1875 74.6221 21.2266 74.1924 21.2559C73.7725 21.2949 73.3135 21.3145 72.8154 21.3145C72.376 21.3145 71.9219 21.2559 71.4531 21.1387C70.9941 21.0215 70.5449 20.8555 70.1055 20.6406C69.666 20.4258 69.2559 20.1768 68.875 19.8936C68.5039 19.6104 68.1963 19.2979 67.9521 18.9561C67.4248 18.2334 67.0342 17.501 66.7803 16.7588C66.5361 16.0166 66.4141 15.1865 66.4141 14.2686C66.4141 13.9365 66.4287 13.624 66.458 13.3311C66.4971 13.0283 66.5557 12.7354 66.6338 12.4521C66.7217 12.1689 66.8291 11.8906 66.9561 11.6172C67.083 11.334 67.2393 11.0459 67.4248 10.7529C67.7471 10.2158 68.1133 9.72266 68.5234 9.27344C68.9336 8.82422 69.3877 8.43848 69.8857 8.11621C70.3838 7.79395 70.9209 7.54492 71.4971 7.36914C72.0732 7.19336 72.6934 7.10547 73.3574 7.10547C73.9141 7.10547 74.4902 7.16406 75.0859 7.28125C75.6914 7.38867 76.2725 7.63281 76.8291 8.01367C77.0049 8.14062 77.249 8.33594 77.5615 8.59961C77.874 8.86328 78.1816 9.16113 78.4844 9.49316C78.7871 9.81543 79.0508 10.1572 79.2754 10.5186C79.5 10.8799 79.6123 11.2266 79.6123 11.5586C79.6123 11.6465 79.5928 11.7197 79.5537 11.7783C79.5244 11.8369 79.4756 11.8662 79.4072 11.8662ZM69.6514 11.0752H76.1699C76.3359 11.0752 76.4336 11.0557 76.4629 11.0166C76.502 10.9678 76.5215 10.9189 76.5215 10.8701C76.5215 10.6455 76.4629 10.4111 76.3457 10.167C76.2383 9.92285 76.1016 9.69336 75.9355 9.47852C75.7793 9.25391 75.6182 9.05371 75.4521 8.87793C75.2861 8.70215 75.1445 8.56543 75.0273 8.46777C74.7148 8.2041 74.4023 8.0332 74.0898 7.95508C73.7773 7.87695 73.4209 7.83789 73.0205 7.83789C72.8545 7.83789 72.6982 7.84277 72.5518 7.85254C72.415 7.85254 72.2783 7.8623 72.1416 7.88184C72.0049 7.90137 71.8682 7.93066 71.7314 7.96973C71.5947 8.00879 71.4434 8.06738 71.2773 8.14551C71.0918 8.2334 70.8867 8.375 70.6621 8.57031C70.4473 8.75586 70.2422 8.97559 70.0469 9.22949C69.8613 9.47363 69.7002 9.74219 69.5635 10.0352C69.4365 10.3281 69.373 10.6162 69.373 10.8994C69.373 11.0166 69.4658 11.0752 69.6514 11.0752Z" fill="#222222"/>
<path d="M50.1719 14.708C50.1914 13.9658 50.3184 13.2725 50.5527 12.6279C50.7871 11.9834 51.1045 11.3926 51.5049 10.8555C51.9053 10.3184 52.3691 9.83984 52.8965 9.41992C53.4336 9 54.0098 8.63867 54.625 8.33594C54.9375 8.18945 55.2891 8.05762 55.6797 7.94043C56.0801 7.82324 56.4658 7.76465 56.8369 7.76465C57.1104 7.76465 57.4326 7.81348 57.8037 7.91113C58.1748 7.99902 58.5264 8.10156 58.8584 8.21875C59.1904 8.32617 59.4736 8.42871 59.708 8.52637C59.9424 8.61426 60.0645 8.66309 60.0742 8.67285C60.0938 8.69238 60.1621 8.70215 60.2793 8.70215V4.26367C60.2793 3.82422 60.2695 3.44336 60.25 3.12109C60.2402 2.78906 60.1963 2.51562 60.1182 2.30078C60.0498 2.08594 59.9326 1.92969 59.7666 1.83203C59.6006 1.72461 59.3662 1.6709 59.0635 1.6709C59.0244 1.6709 58.9658 1.68066 58.8877 1.7002C58.8096 1.70996 58.7217 1.72949 58.624 1.75879C58.5264 1.77832 58.4287 1.79785 58.3311 1.81738C58.2334 1.82715 58.1455 1.83203 58.0674 1.83203C58.0381 1.83203 57.9697 1.82715 57.8623 1.81738C57.7549 1.80762 57.6377 1.78809 57.5107 1.75879C57.3936 1.72949 57.2861 1.69043 57.1885 1.6416C57.1006 1.59277 57.0566 1.5293 57.0566 1.45117C57.0566 1.41211 57.0713 1.37793 57.1006 1.34863C57.1396 1.30957 57.1934 1.29004 57.2617 1.29004C57.4961 1.27051 57.7598 1.23633 58.0527 1.1875C58.3457 1.12891 58.624 1.0752 58.8877 1.02637C59.1611 0.967773 59.3955 0.914062 59.5908 0.865234C59.7959 0.816406 59.9229 0.782227 59.9717 0.762695C60.2842 0.704102 60.6016 0.635742 60.9238 0.557617C61.2461 0.479492 61.5635 0.396484 61.876 0.308594C61.9248 0.289062 61.9883 0.254883 62.0664 0.206055C62.1543 0.157227 62.2422 0.132812 62.3301 0.132812C62.4863 0.132812 62.6182 0.176758 62.7256 0.264648C62.833 0.342773 62.8867 0.416016 62.8867 0.484375V20.0254C63.082 19.9961 63.2969 19.9619 63.5312 19.9229C63.7754 19.874 64.0146 19.8301 64.249 19.791C64.4932 19.752 64.7227 19.7178 64.9375 19.6885C65.1621 19.6592 65.3477 19.6445 65.4941 19.6445C65.6016 19.6445 65.6602 19.6738 65.6699 19.7324C65.6895 19.7812 65.6992 19.8301 65.6992 19.8789C65.6992 20.0156 65.665 20.0986 65.5967 20.1279C65.333 20.1963 65.1084 20.2402 64.9229 20.2598C64.7373 20.2695 64.5322 20.2939 64.3076 20.333C63.9756 20.3916 63.624 20.4795 63.2529 20.5967C62.8818 20.7139 62.5254 20.8359 62.1836 20.9629C61.7734 21.1191 61.4316 21.2461 61.1582 21.3438C60.8945 21.4414 60.6602 21.4902 60.4551 21.4902C60.25 21.4902 60.1475 21.3975 60.1475 21.2119C60.1475 21.0166 60.167 20.8213 60.2061 20.626C60.2549 20.4209 60.2793 20.2354 60.2793 20.0693C60.2793 20.0205 60.2744 19.9375 60.2646 19.8203C60.2549 19.6934 60.2451 19.6104 60.2354 19.5713C60.2061 19.5029 60.1523 19.4688 60.0742 19.4688C60.0254 19.4688 59.8984 19.5566 59.6934 19.7324C59.498 19.9082 59.2734 20.1084 59.0195 20.333C58.7656 20.5479 58.5068 20.7578 58.2432 20.9629C57.9893 21.168 57.7744 21.2949 57.5986 21.3438C57.3447 21.4219 57.0762 21.4756 56.793 21.5049C56.5195 21.5342 56.2559 21.5488 56.002 21.5488C55.0938 21.5488 54.2783 21.3535 53.5557 20.9629C52.833 20.5625 52.2178 20.04 51.71 19.3955C51.2119 18.751 50.8311 18.0234 50.5674 17.2129C50.3037 16.3926 50.1719 15.5576 50.1719 14.708ZM60.2793 18.6631V10.5479C59.9863 10.5479 59.6641 10.4111 59.3125 10.1377C59.1172 9.97168 58.9463 9.78613 58.7998 9.58105C58.6631 9.37598 58.4971 9.18555 58.3018 9.00977C58.1064 8.82422 57.8574 8.67285 57.5547 8.55566C57.2617 8.42871 56.8613 8.36523 56.3535 8.36523C55.9238 8.36523 55.543 8.46289 55.2109 8.6582C54.8789 8.84375 54.5859 9.09766 54.332 9.41992C54.0879 9.73242 53.8779 10.0938 53.7021 10.5039C53.5361 10.9043 53.3994 11.3193 53.292 11.749C53.1846 12.1787 53.1064 12.5986 53.0576 13.0088C53.0088 13.4189 52.9844 13.79 52.9844 14.1221C52.9844 14.4443 52.9844 14.7715 52.9844 15.1035C52.9941 15.4258 53.0186 15.7432 53.0576 16.0557C53.0967 16.3682 53.1602 16.6709 53.248 16.9639C53.3359 17.2471 53.458 17.5156 53.6143 17.7695C53.8486 18.1504 54.0928 18.5068 54.3467 18.8389C54.6006 19.1709 54.8691 19.4639 55.1523 19.7178C55.4355 19.9619 55.7334 20.1572 56.0459 20.3037C56.3682 20.4404 56.7051 20.5088 57.0566 20.5088C57.1738 20.5088 57.335 20.4844 57.54 20.4355C57.7451 20.3867 57.9648 20.3184 58.1992 20.2305C58.4434 20.1426 58.6875 20.04 58.9316 19.9229C59.1758 19.7959 59.3955 19.6641 59.5908 19.5273C59.7959 19.3906 59.9619 19.249 60.0889 19.1025C60.2158 18.9561 60.2793 18.8096 60.2793 18.6631Z" fill="#222222"/>
<path d="M43.1836 19.1318L43.1104 19.1904C43.1006 19.1904 43.0176 19.2637 42.8613 19.4102C42.7148 19.5469 42.5488 19.7031 42.3633 19.8789C42.1777 20.0449 42.002 20.2012 41.8359 20.3477C41.6699 20.4941 41.5674 20.5723 41.5283 20.582C41.2158 20.7578 40.8594 20.9238 40.459 21.0801C40.0684 21.2363 39.624 21.3145 39.126 21.3145C38.7744 21.3145 38.4229 21.2656 38.0713 21.168C37.7295 21.0703 37.417 20.9043 37.1338 20.6699C36.8604 20.4258 36.6357 20.1035 36.46 19.7031C36.2939 19.3027 36.2109 18.7949 36.2109 18.1797C36.2109 17.9551 36.2646 17.6719 36.3721 17.3301C36.4893 16.9785 36.6797 16.6611 36.9434 16.3779C37.2168 16.0557 37.5146 15.7871 37.8369 15.5723C38.1689 15.3477 38.5303 15.1523 38.9209 14.9863C39.3213 14.8105 39.7607 14.6543 40.2393 14.5176C40.7178 14.3809 41.25 14.2393 41.8359 14.0928C41.9727 14.0635 42.1191 14.0293 42.2754 13.9902C42.4316 13.9512 42.5781 13.9121 42.7148 13.873C42.8613 13.834 42.9834 13.7998 43.0811 13.7705C43.1885 13.7314 43.2568 13.6973 43.2861 13.668C43.335 13.6289 43.3789 13.5947 43.418 13.5654C43.4668 13.5361 43.4961 13.4678 43.5059 13.3604C43.5449 13.1357 43.5791 12.8965 43.6084 12.6426C43.6475 12.3887 43.6768 12.1348 43.6963 11.8809C43.7256 11.627 43.7451 11.3828 43.7549 11.1484C43.7646 10.9141 43.7695 10.7041 43.7695 10.5186C43.7695 10.1377 43.6963 9.78125 43.5498 9.44922C43.4033 9.11719 43.2031 8.8291 42.9492 8.58496C42.7051 8.34082 42.417 8.15039 42.085 8.01367C41.7529 7.87695 41.4014 7.80859 41.0303 7.80859C40.7373 7.80859 40.4297 7.88184 40.1074 8.02832C39.7949 8.16504 39.5068 8.35059 39.2432 8.58496C38.9893 8.81934 38.7793 9.08789 38.6133 9.39062C38.4473 9.68359 38.3643 9.98633 38.3643 10.2988C38.3643 10.4453 38.4033 10.5625 38.4814 10.6504C38.5596 10.7383 38.6426 10.8213 38.7305 10.8994C38.8184 10.9775 38.9014 11.0654 38.9795 11.1631C39.0576 11.2607 39.0967 11.3926 39.0967 11.5586C39.0967 11.959 38.9697 12.2715 38.7158 12.4961C38.4619 12.7207 38.1494 12.833 37.7783 12.833C37.5537 12.833 37.3535 12.7891 37.1777 12.7012C37.0117 12.6035 36.8652 12.4814 36.7383 12.335C36.6113 12.1787 36.5137 12.0029 36.4453 11.8076C36.3867 11.6123 36.3574 11.4121 36.3574 11.207C36.3574 11.0117 36.4111 10.8018 36.5186 10.5771C36.626 10.3525 36.7578 10.1328 36.9141 9.91797C37.0703 9.70312 37.2314 9.50293 37.3975 9.31738C37.5732 9.12207 37.7197 8.96582 37.8369 8.84863C38.0518 8.64355 38.2568 8.46289 38.4521 8.30664C38.6572 8.15039 38.8721 7.99414 39.0967 7.83789C39.2627 7.73047 39.4336 7.64258 39.6094 7.57422C39.7852 7.50586 39.9561 7.44727 40.1221 7.39844C40.2197 7.35938 40.3516 7.31543 40.5176 7.2666C40.6934 7.20801 40.8838 7.1543 41.0889 7.10547C41.3037 7.05664 41.5234 7.01758 41.748 6.98828C41.9824 6.94922 42.207 6.92969 42.4219 6.92969C42.8809 6.92969 43.3301 6.99316 43.7695 7.12012C44.2188 7.24707 44.6143 7.44727 44.9561 7.7207C45.3076 7.99414 45.5908 8.3457 45.8057 8.77539C46.0205 9.20508 46.1279 9.71777 46.1279 10.3135C46.1279 10.9775 46.0938 11.6562 46.0254 12.3496C45.957 13.043 45.8789 13.707 45.791 14.3418C45.7129 14.9766 45.6396 15.5576 45.5713 16.085C45.5029 16.6123 45.4688 17.0371 45.4688 17.3594C45.4688 17.5254 45.4834 17.7354 45.5127 17.9893C45.542 18.2334 45.5957 18.4727 45.6738 18.707C45.7617 18.9316 45.8789 19.127 46.0254 19.293C46.1719 19.459 46.3623 19.542 46.5967 19.542C46.8701 19.542 47.1338 19.4785 47.3877 19.3516C47.6416 19.2246 47.876 19.0635 48.0908 18.8682C48.3057 18.6729 48.4961 18.458 48.6621 18.2236C48.8379 17.9893 48.9795 17.7598 49.0869 17.5352C49.1064 17.4961 49.126 17.457 49.1455 17.418C49.1748 17.3691 49.2139 17.3447 49.2627 17.3447C49.3018 17.3447 49.3213 17.3789 49.3213 17.4473V17.5938C49.3213 18.0234 49.2383 18.458 49.0723 18.8975C48.916 19.3271 48.6816 19.7227 48.3691 20.084C48.0664 20.4355 47.6904 20.7236 47.2412 20.9482C46.792 21.1729 46.2744 21.2852 45.6885 21.2852C45.5811 21.2852 45.4541 21.2754 45.3076 21.2559C45.1709 21.2461 45.0391 21.2168 44.9121 21.168C44.6582 21.041 44.4482 20.9043 44.2822 20.7578C44.1162 20.6016 43.9697 20.4404 43.8428 20.2744C43.7256 20.1084 43.6133 19.9326 43.5059 19.7471C43.4082 19.5518 43.3008 19.3467 43.1836 19.1318ZM38.54 18.6045C38.54 18.8486 38.5889 19.0586 38.6865 19.2344C38.7842 19.4102 38.9111 19.5566 39.0674 19.6738C39.2334 19.7812 39.4189 19.8643 39.624 19.9229C39.8291 19.9717 40.0342 19.9961 40.2393 19.9961C40.4932 19.9961 40.7373 19.9717 40.9717 19.9229C41.2158 19.8643 41.4453 19.791 41.6602 19.7031C41.875 19.6152 42.0703 19.5225 42.2461 19.4248C42.4316 19.3174 42.5977 19.2148 42.7441 19.1172C42.9883 18.9023 43.1104 18.6826 43.1104 18.458C43.1104 17.7354 43.1543 17.0566 43.2422 16.4219C43.3398 15.7773 43.3887 15.1475 43.3887 14.5322C43.3887 14.4639 43.3789 14.3906 43.3594 14.3125C43.3496 14.2344 43.3057 14.1953 43.2275 14.1953C43.1396 14.1953 43.0518 14.21 42.9639 14.2393C42.8857 14.2588 42.8125 14.2783 42.7441 14.2979C42.3145 14.4541 41.8945 14.625 41.4844 14.8105C41.0742 14.9961 40.6689 15.1865 40.2686 15.3818C39.9951 15.5283 39.751 15.7236 39.5361 15.9678C39.3213 16.2119 39.1406 16.4805 38.9941 16.7734C38.8477 17.0664 38.7354 17.374 38.6572 17.6963C38.5791 18.0088 38.54 18.3115 38.54 18.6045Z" fill="#222222"/>
<path d="M34.3213 11.8662H24.1846C24.0771 11.9053 24.0137 11.9492 23.9941 11.998C23.9746 12.0371 23.9551 12.1201 23.9355 12.2471C23.916 12.335 23.8965 12.5254 23.877 12.8184C23.8672 13.1113 23.8623 13.4434 23.8623 13.8145C23.8623 14.1855 23.9062 14.542 23.9941 14.8838C24.082 15.2256 24.1797 15.5625 24.2871 15.8945C24.6973 17.1055 25.3369 18.0283 26.2061 18.6631C27.085 19.2979 28.2373 19.6152 29.6631 19.6152C29.8779 19.6152 30.1123 19.5762 30.3662 19.498C30.6201 19.4199 30.874 19.3223 31.1279 19.2051C31.3818 19.0781 31.626 18.9316 31.8604 18.7656C32.0947 18.5996 32.2998 18.4287 32.4756 18.2529C32.6025 18.1357 32.7051 18.0039 32.7832 17.8574C32.8711 17.7012 32.9785 17.5107 33.1055 17.2861C33.1445 17.2471 33.1982 17.2178 33.2666 17.1982C33.335 17.1689 33.3936 17.1543 33.4424 17.1543C33.6182 17.1543 33.7354 17.2129 33.7939 17.3301C33.8623 17.4375 33.8965 17.5742 33.8965 17.7402C33.8965 17.7891 33.877 17.8574 33.8379 17.9453C33.8086 18.0234 33.7695 18.1064 33.7207 18.1943C33.6816 18.2822 33.6328 18.3701 33.5742 18.458C33.5254 18.5361 33.4863 18.5947 33.457 18.6338C33.0859 19.1904 32.6172 19.6836 32.0508 20.1133C31.4844 20.5332 30.8057 20.875 30.0146 21.1387C29.8389 21.1875 29.5361 21.2266 29.1064 21.2559C28.6865 21.2949 28.2275 21.3145 27.7295 21.3145C27.29 21.3145 26.8359 21.2559 26.3672 21.1387C25.9082 21.0215 25.459 20.8555 25.0195 20.6406C24.5801 20.4258 24.1699 20.1768 23.7891 19.8936C23.418 19.6104 23.1104 19.2979 22.8662 18.9561C22.3389 18.2334 21.9482 17.501 21.6943 16.7588C21.4502 16.0166 21.3281 15.1865 21.3281 14.2686C21.3281 13.9365 21.3428 13.624 21.3721 13.3311C21.4111 13.0283 21.4697 12.7354 21.5479 12.4521C21.6357 12.1689 21.7432 11.8906 21.8701 11.6172C21.9971 11.334 22.1533 11.0459 22.3389 10.7529C22.6611 10.2158 23.0273 9.72266 23.4375 9.27344C23.8477 8.82422 24.3018 8.43848 24.7998 8.11621C25.2979 7.79395 25.835 7.54492 26.4111 7.36914C26.9873 7.19336 27.6074 7.10547 28.2715 7.10547C28.8281 7.10547 29.4043 7.16406 30 7.28125C30.6055 7.38867 31.1865 7.63281 31.7432 8.01367C31.9189 8.14062 32.1631 8.33594 32.4756 8.59961C32.7881 8.86328 33.0957 9.16113 33.3984 9.49316C33.7012 9.81543 33.9648 10.1572 34.1895 10.5186C34.4141 10.8799 34.5264 11.2266 34.5264 11.5586C34.5264 11.6465 34.5068 11.7197 34.4678 11.7783C34.4385 11.8369 34.3896 11.8662 34.3213 11.8662ZM24.5654 11.0752H31.084C31.25 11.0752 31.3477 11.0557 31.377 11.0166C31.416 10.9678 31.4355 10.9189 31.4355 10.8701C31.4355 10.6455 31.377 10.4111 31.2598 10.167C31.1523 9.92285 31.0156 9.69336 30.8496 9.47852C30.6934 9.25391 30.5322 9.05371 30.3662 8.87793C30.2002 8.70215 30.0586 8.56543 29.9414 8.46777C29.6289 8.2041 29.3164 8.0332 29.0039 7.95508C28.6914 7.87695 28.335 7.83789 27.9346 7.83789C27.7686 7.83789 27.6123 7.84277 27.4658 7.85254C27.3291 7.85254 27.1924 7.8623 27.0557 7.88184C26.9189 7.90137 26.7822 7.93066 26.6455 7.96973C26.5088 8.00879 26.3574 8.06738 26.1914 8.14551C26.0059 8.2334 25.8008 8.375 25.5762 8.57031C25.3613 8.75586 25.1562 8.97559 24.9609 9.22949C24.7754 9.47363 24.6143 9.74219 24.4775 10.0352C24.3506 10.3281 24.2871 10.6162 24.2871 10.8994C24.2871 11.0166 24.3799 11.0752 24.5654 11.0752Z" fill="#222222"/>
<path d="M2.98828 19.9238V2.14062C2.98828 2.00391 2.94434 1.8916 2.85645 1.80371C2.76855 1.71582 2.65625 1.64746 2.51953 1.59863C2.39258 1.54004 2.25586 1.50098 2.10938 1.48145C1.96289 1.46191 1.83105 1.45215 1.71387 1.45215H1.11328C0.976562 1.45215 0.864258 1.45215 0.776367 1.45215C0.688477 1.45215 0.605469 1.44238 0.527344 1.42285C0.410156 1.42285 0.351562 1.38867 0.351562 1.32031C0.351562 1.21289 0.410156 1.14453 0.527344 1.11523C0.849609 1.05664 1.14258 1.0127 1.40625 0.983398C1.67969 0.954102 1.94824 0.93457 2.21191 0.924805C2.47559 0.905273 2.73926 0.895508 3.00293 0.895508C3.27637 0.885742 3.57422 0.866211 3.89648 0.836914C3.94531 0.836914 4.05273 0.832031 4.21875 0.822266C4.39453 0.802734 4.59961 0.783203 4.83398 0.763672C5.07812 0.744141 5.33203 0.724609 5.5957 0.705078C5.86914 0.675781 6.12305 0.651367 6.35742 0.631836C6.60156 0.602539 6.81152 0.578125 6.9873 0.558594C7.16309 0.539062 7.28027 0.524414 7.33887 0.514648C7.62207 0.475586 7.92969 0.446289 8.26172 0.426758C8.60352 0.397461 8.94043 0.382812 9.27246 0.382812C10.2881 0.382812 11.2061 0.509766 12.0264 0.763672C12.8564 1.01758 13.5645 1.37891 14.1504 1.84766C14.7363 2.31641 15.1855 2.87793 15.498 3.53223C15.8203 4.18652 15.9814 4.91406 15.9814 5.71484C15.9814 6.34961 15.9131 6.9502 15.7764 7.5166C15.6396 8.07324 15.3711 8.62012 14.9707 9.15723C14.7754 9.41113 14.5654 9.63086 14.3408 9.81641C14.126 9.99219 13.9014 10.1533 13.667 10.2998C13.4424 10.4463 13.208 10.583 12.9639 10.71C12.7197 10.8369 12.4756 10.9785 12.2314 11.1348C12.1631 11.1738 12.1289 11.2422 12.1289 11.3398C12.1289 11.3594 12.1533 11.418 12.2021 11.5156C12.8662 12.3262 13.5107 13.1514 14.1357 13.9912C14.7607 14.8311 15.3662 15.6953 15.9521 16.584C16.2256 16.9648 16.5283 17.3506 16.8604 17.7412C17.2021 18.1318 17.5439 18.498 17.8857 18.8398C18.0713 19.0254 18.2617 19.2012 18.457 19.3672C18.6523 19.5332 18.877 19.6943 19.1309 19.8506C19.3945 19.9971 19.7021 20.1387 20.0537 20.2754C20.4053 20.4023 20.8252 20.5146 21.3135 20.6123C21.4404 20.6514 21.5479 20.6953 21.6357 20.7441C21.7334 20.7832 21.7822 20.8467 21.7822 20.9346C21.7822 21.1104 21.7236 21.2031 21.6064 21.2129C21.5869 21.2324 21.543 21.2422 21.4746 21.2422C21.416 21.2422 21.3428 21.2422 21.2549 21.2422H20.874C20.6787 21.2422 20.4443 21.2422 20.1709 21.2422C19.9072 21.2324 19.624 21.2275 19.3213 21.2275C19.0283 21.2178 18.7256 21.208 18.4131 21.1982C18.1006 21.1885 17.8125 21.1787 17.5488 21.1689C17.1582 21.1494 16.792 21.1152 16.4502 21.0664C16.1084 21.0176 15.7666 20.8809 15.4248 20.6562C15.2002 20.5488 14.9658 20.3633 14.7217 20.0996C14.4775 19.8262 14.248 19.5332 14.0332 19.2207C13.7695 18.8691 13.4863 18.4785 13.1836 18.0488C12.8906 17.6191 12.5928 17.1846 12.29 16.7451C11.9873 16.3057 11.6895 15.876 11.3965 15.4561C11.1133 15.0361 10.8496 14.6553 10.6055 14.3135C10.3711 13.9619 10.1709 13.6689 10.0049 13.4346C9.84863 13.1904 9.74609 13.0293 9.69727 12.9512C9.6582 12.8926 9.58496 12.79 9.47754 12.6436C9.37988 12.4971 9.27246 12.3506 9.15527 12.2041C9.03809 12.0479 8.9209 11.9111 8.80371 11.7939C8.68652 11.667 8.59863 11.5986 8.54004 11.5889C8.30566 11.5596 8.03223 11.54 7.71973 11.5303C7.41699 11.5205 7.13867 11.5156 6.88477 11.5156H6.50391C6.39648 11.5156 6.28906 11.5449 6.18164 11.6035C6.08398 11.6523 6.01562 11.7402 5.97656 11.8672V18.7812C5.97656 18.8984 5.98145 19.0352 5.99121 19.1914C6.01074 19.3477 6.03516 19.499 6.06445 19.6455C6.09375 19.792 6.13281 19.9287 6.18164 20.0557C6.23047 20.1729 6.28906 20.2559 6.35742 20.3047C6.48438 20.3926 6.69922 20.4707 7.00195 20.5391C7.30469 20.5977 7.62207 20.6465 7.9541 20.6855C8.2959 20.7148 8.61816 20.7393 8.9209 20.7588C9.2334 20.7783 9.45312 20.7881 9.58008 20.7881C9.66797 20.7881 9.72656 20.8271 9.75586 20.9053C9.78516 20.9834 9.7998 21.0615 9.7998 21.1396C9.7998 21.2471 9.77539 21.3105 9.72656 21.3301C9.6875 21.3594 9.60449 21.374 9.47754 21.374C9.32129 21.374 9.07227 21.3643 8.73047 21.3447C8.38867 21.335 8.02734 21.3203 7.64648 21.3008C7.27539 21.291 6.92871 21.2764 6.60645 21.2568C6.29395 21.2471 6.08398 21.2422 5.97656 21.2422H1.43555C1.39648 21.2422 1.33301 21.2422 1.24512 21.2422C1.15723 21.2324 1.05957 21.2275 0.952148 21.2275C0.844727 21.2178 0.737305 21.2129 0.629883 21.2129C0.522461 21.2031 0.429688 21.1982 0.351562 21.1982C0.244141 21.1787 0.15625 21.1689 0.0878906 21.1689C0.0292969 21.1592 0 21.1006 0 20.9932C0 20.9248 0.0195312 20.876 0.0585938 20.8467C0.0976562 20.8076 0.195312 20.7637 0.351562 20.7148C0.537109 20.6758 0.771484 20.6562 1.05469 20.6562C1.34766 20.6465 1.63086 20.6221 1.9043 20.583C2.17773 20.5439 2.41699 20.4805 2.62207 20.3926C2.83691 20.2949 2.95898 20.1387 2.98828 19.9238ZM5.97656 1.37891V10.7832C5.97656 10.8809 6.00586 10.9639 6.06445 11.0322C6.12305 11.1006 6.18652 11.1348 6.25488 11.1348H6.84082C7.17285 11.1348 7.52441 11.1201 7.89551 11.0908C8.2666 11.0615 8.56445 11.0225 8.78906 10.9736C9.05273 10.9053 9.31641 10.7979 9.58008 10.6514C9.84375 10.4951 10.0928 10.3242 10.3271 10.1387C10.5615 9.94336 10.7812 9.73828 10.9863 9.52344C11.1914 9.29883 11.3721 9.08398 11.5283 8.87891C11.6943 8.64453 11.8408 8.42969 11.9678 8.23438C12.0947 8.03906 12.2021 7.83398 12.29 7.61914C12.3877 7.4043 12.4609 7.16504 12.5098 6.90137C12.5684 6.62793 12.6123 6.30566 12.6416 5.93457C12.6416 5.41699 12.6025 4.95801 12.5244 4.55762C12.4463 4.14746 12.3193 3.77637 12.1436 3.44434C11.9775 3.1123 11.7676 2.80469 11.5137 2.52148C11.2598 2.23828 10.957 1.96484 10.6055 1.70117C10.4883 1.62305 10.3516 1.54492 10.1953 1.4668C10.0488 1.38867 9.89258 1.32031 9.72656 1.26172C9.56055 1.19336 9.38965 1.13477 9.21387 1.08594C9.03809 1.03711 8.87207 0.998047 8.71582 0.96875C8.62793 0.949219 8.48145 0.939453 8.27637 0.939453C8.07129 0.929688 7.90527 0.924805 7.77832 0.924805C7.6416 0.924805 7.4707 0.929688 7.26562 0.939453C7.06055 0.939453 6.86035 0.954102 6.66504 0.983398C6.47949 1.0127 6.31836 1.06152 6.18164 1.12988C6.04492 1.18848 5.97656 1.27148 5.97656 1.37891Z" fill="#222222"/>
</svg>
