<svg width="233" height="20" viewBox="0 0 233 20" fill="none" xmlns="http://www.w3.org/2000/svg">
<path d="M232.091 11.0123H222.682C222.583 11.0486 222.524 11.0894 222.506 11.1347C222.488 11.1709 222.469 11.248 222.451 11.3658C222.433 11.4474 222.415 11.6241 222.397 11.896C222.388 12.1679 222.383 12.4761 222.383 12.8205C222.383 13.1649 222.424 13.4958 222.506 13.813C222.587 14.1302 222.678 14.4429 222.778 14.7511C223.158 15.875 223.752 16.7315 224.559 17.3207C225.374 17.9098 226.444 18.2044 227.767 18.2044C227.967 18.2044 228.184 18.1681 228.42 18.0956C228.655 18.0231 228.891 17.9325 229.127 17.8237C229.362 17.7059 229.589 17.5699 229.806 17.4158C230.024 17.2617 230.214 17.1031 230.377 16.94C230.495 16.8312 230.59 16.7089 230.663 16.5729C230.745 16.4279 230.844 16.2511 230.962 16.0427C230.998 16.0064 231.048 15.9792 231.112 15.9611C231.175 15.9339 231.229 15.9203 231.275 15.9203C231.438 15.9203 231.547 15.9747 231.601 16.0835C231.665 16.1832 231.696 16.3101 231.696 16.4641C231.696 16.5095 231.678 16.5729 231.642 16.6545C231.615 16.727 231.578 16.804 231.533 16.8856C231.497 16.9672 231.452 17.0487 231.397 17.1303C231.352 17.2028 231.316 17.2572 231.288 17.2935C230.944 17.8101 230.509 18.2678 229.983 18.6666C229.458 19.0564 228.828 19.3736 228.093 19.6183C227.93 19.6636 227.649 19.6999 227.251 19.7271C226.861 19.7633 226.435 19.7815 225.973 19.7815C225.565 19.7815 225.143 19.7271 224.708 19.6183C224.282 19.5095 223.865 19.3555 223.457 19.1561C223.049 18.9567 222.669 18.7255 222.315 18.4627C221.971 18.1998 221.685 17.9098 221.459 17.5926C220.969 16.9219 220.607 16.2421 220.371 15.5532C220.145 14.8644 220.031 14.094 220.031 13.242C220.031 12.9338 220.045 12.6438 220.072 12.3719C220.108 12.0909 220.163 11.819 220.235 11.5561C220.317 11.2933 220.416 11.035 220.534 10.7812C220.652 10.5183 220.797 10.251 220.969 9.97905C221.268 9.48054 221.608 9.02283 221.989 8.6059C222.37 8.18896 222.791 7.83095 223.253 7.53184C223.716 7.23274 224.214 7.00162 224.749 6.83847C225.284 6.67532 225.859 6.59375 226.476 6.59375C226.992 6.59375 227.527 6.64813 228.08 6.7569C228.642 6.8566 229.181 7.08319 229.698 7.43668C229.861 7.5545 230.087 7.73578 230.377 7.9805C230.668 8.22522 230.953 8.50166 231.234 8.80983C231.515 9.10893 231.76 9.42616 231.968 9.76152C232.177 10.0969 232.281 10.4186 232.281 10.7268C232.281 10.8084 232.263 10.8764 232.226 10.9307C232.199 10.9851 232.154 11.0123 232.091 11.0123ZM223.036 10.2782H229.086C229.24 10.2782 229.331 10.26 229.358 10.2238C229.394 10.1785 229.412 10.1331 229.412 10.0878C229.412 9.87935 229.358 9.66182 229.249 9.43523C229.149 9.20863 229.022 8.99564 228.868 8.79623C228.723 8.58777 228.574 8.40196 228.42 8.23881C228.266 8.07567 228.134 7.94878 228.025 7.85814C227.735 7.61342 227.445 7.4548 227.155 7.38229C226.865 7.30978 226.534 7.27353 226.163 7.27353C226.009 7.27353 225.864 7.27806 225.728 7.28712C225.601 7.28712 225.474 7.29619 225.347 7.31432C225.22 7.33244 225.093 7.35963 224.966 7.39589C224.84 7.43214 224.699 7.48653 224.545 7.55904C224.373 7.64061 224.182 7.77203 223.974 7.95331C223.775 8.12552 223.584 8.32945 223.403 8.56511C223.231 8.7917 223.081 9.04095 222.954 9.31287C222.836 9.58478 222.778 9.85216 222.778 10.115C222.778 10.2238 222.864 10.2782 223.036 10.2782Z" fill="white"/>
<path d="M210.458 18.6262V11.1758C210.458 10.9039 210.454 10.6184 210.445 10.3193C210.445 10.0111 210.427 9.72562 210.39 9.46277C210.363 9.19992 210.313 8.97786 210.241 8.79658C210.177 8.60625 210.087 8.48389 209.969 8.4295C209.751 8.3298 209.484 8.27995 209.167 8.27995C208.958 8.27995 208.764 8.28902 208.582 8.30714C208.41 8.32527 208.251 8.33433 208.106 8.33433C208.061 8.33433 208.02 8.31621 207.984 8.27995C207.948 8.2437 207.93 8.20744 207.93 8.17119C207.93 8.07149 207.961 8.01257 208.025 7.99445C208.306 7.8313 208.591 7.718 208.881 7.65456C209.171 7.59111 209.471 7.50954 209.779 7.40984C210.051 7.32826 210.327 7.24216 210.608 7.15152C210.889 7.06088 211.147 6.94305 211.383 6.79803C211.546 6.71646 211.696 6.63036 211.832 6.53972C211.968 6.44908 212.14 6.40376 212.348 6.40376C212.403 6.40376 212.452 6.44002 212.498 6.51253C212.552 6.57597 212.579 6.62582 212.579 6.66208V7.40984C212.579 7.48235 212.579 7.56845 212.579 7.66815C212.588 7.76785 212.593 7.86755 212.593 7.96725C212.602 8.06696 212.611 8.16212 212.62 8.25276C212.629 8.33433 212.638 8.39325 212.647 8.4295C212.656 8.46576 212.67 8.49295 212.688 8.51108L212.702 8.52467C212.756 8.52467 212.806 8.49748 212.851 8.4431C212.897 8.37965 212.946 8.30261 213.001 8.21197C213.064 8.11227 213.132 8.00351 213.205 7.88568C213.286 7.76785 213.391 7.65002 213.517 7.5322C213.69 7.35999 213.88 7.20137 214.088 7.05635C214.306 6.90227 214.528 6.77084 214.755 6.66208C214.99 6.55331 215.226 6.46721 215.462 6.40376C215.706 6.34032 215.947 6.30859 216.182 6.30859C216.527 6.30859 216.88 6.34032 217.243 6.40376C217.605 6.45815 217.931 6.56238 218.222 6.71646C218.521 6.86148 218.765 7.06995 218.956 7.34186C219.146 7.61377 219.241 7.95819 219.241 8.37512C219.241 8.60171 219.191 8.81018 219.092 9.00052C219.001 9.19086 218.874 9.354 218.711 9.48996C218.557 9.62591 218.376 9.73468 218.167 9.81625C217.968 9.88876 217.759 9.92502 217.542 9.92502C217.397 9.92502 217.243 9.90236 217.08 9.85704C216.916 9.81172 216.812 9.75734 216.767 9.69389C216.486 9.44011 216.291 9.09569 216.182 8.66063C216.137 8.41591 216.105 8.21197 216.087 8.04883C216.078 7.87662 216.042 7.74519 215.978 7.65456C215.924 7.55485 215.829 7.48688 215.693 7.45062C215.557 7.4053 215.344 7.38264 215.054 7.38264C214.818 7.38264 214.573 7.44609 214.32 7.57298C214.075 7.69081 213.844 7.84489 213.626 8.03523C213.418 8.22557 213.236 8.43857 213.082 8.67422C212.928 8.90082 212.838 9.12288 212.81 9.34041C212.765 9.53981 212.738 9.75734 212.729 9.993C212.729 10.2196 212.729 10.4552 212.729 10.7V18.8709C212.783 18.9887 212.883 19.0658 213.028 19.102C213.173 19.1292 213.336 19.1428 213.517 19.1428C213.572 19.1428 213.644 19.1428 213.735 19.1428C213.835 19.1338 213.934 19.1292 214.034 19.1292C214.143 19.1202 214.238 19.1156 214.32 19.1156C214.401 19.1066 214.456 19.102 214.483 19.102C214.691 19.102 214.859 19.1292 214.986 19.1836C215.122 19.2289 215.19 19.3332 215.19 19.4963C215.19 19.6051 215.135 19.7048 215.027 19.7954C214.927 19.886 214.827 19.9359 214.727 19.945C214.229 19.8634 213.717 19.8045 213.191 19.7682C212.675 19.732 212.158 19.7138 211.641 19.7138C211.097 19.7138 210.59 19.7365 210.119 19.7818C209.647 19.8271 209.158 19.8498 208.65 19.8498C208.551 19.8498 208.433 19.8135 208.297 19.741C208.17 19.6685 208.106 19.5733 208.106 19.4555C208.106 19.383 208.129 19.3196 208.174 19.2652C208.22 19.2108 208.274 19.17 208.338 19.1428C208.41 19.1066 208.478 19.0794 208.541 19.0612C208.614 19.0431 208.673 19.0341 208.718 19.0341C208.818 19.0341 208.913 19.0386 209.004 19.0476C209.103 19.0567 209.208 19.0658 209.316 19.0748C209.398 19.093 209.484 19.1066 209.575 19.1156C209.665 19.1247 209.751 19.1292 209.833 19.1292C209.887 19.1292 209.946 19.1156 210.01 19.0884C210.082 19.0612 210.15 19.025 210.214 18.9797C210.286 18.9253 210.345 18.8709 210.39 18.8165C210.436 18.7531 210.458 18.6896 210.458 18.6262Z" fill="white"/>
<path d="M194.445 13.3655C194.445 12.4048 194.604 11.5437 194.921 10.7824C195.247 10.0119 195.696 9.35936 196.267 8.8246C196.838 8.28984 197.518 7.87744 198.306 7.5874C199.095 7.29736 199.961 7.15234 200.903 7.15234C201.112 7.15234 201.329 7.175 201.556 7.22032C201.782 7.26564 202.009 7.32909 202.236 7.41066C202.471 7.48317 202.698 7.56927 202.915 7.66898C203.142 7.76868 203.35 7.87291 203.541 7.98167C204.619 8.57988 205.421 9.35483 205.947 10.3065C206.482 11.2582 206.749 12.3459 206.749 13.5695C206.749 14.3943 206.604 15.1873 206.314 15.9487C206.033 16.701 205.603 17.3853 205.023 18.0016C204.443 18.5998 203.781 19.0349 203.038 19.3068C202.294 19.5787 201.515 19.7147 200.699 19.7147C200.101 19.7147 199.512 19.6603 198.932 19.5515C198.361 19.4427 197.79 19.1844 197.219 18.7766C196.267 18.0877 195.565 17.3037 195.111 16.4245C194.667 15.5453 194.445 14.5257 194.445 13.3655ZM196.77 13.4335C196.77 13.796 196.802 14.1858 196.865 14.6027C196.929 15.0197 197.024 15.4411 197.151 15.8671C197.287 16.284 197.454 16.6919 197.654 17.0907C197.862 17.4805 198.107 17.8294 198.388 18.1376C198.669 18.4367 198.995 18.6769 199.367 18.8581C199.739 19.0394 200.151 19.13 200.604 19.13C200.894 19.13 201.148 19.1029 201.365 19.0485C201.583 18.985 201.778 18.8989 201.95 18.7902C202.131 18.6814 202.294 18.5545 202.44 18.4095C202.594 18.2554 202.743 18.0877 202.888 17.9064C203.142 17.5802 203.359 17.2221 203.541 16.8324C203.722 16.4427 203.872 16.0439 203.989 15.636C204.107 15.2281 204.189 14.8248 204.234 14.426C204.289 14.0181 204.316 13.6329 204.316 13.2704C204.316 12.9259 204.279 12.5453 204.207 12.1283C204.134 11.7023 204.017 11.2763 203.853 10.8503C203.699 10.4153 203.5 9.99382 203.255 9.58595C203.011 9.17808 202.716 8.81554 202.372 8.49831C202.109 8.24452 201.828 8.05872 201.529 7.94089C201.23 7.82306 200.985 7.76414 200.794 7.76414C200.368 7.76414 199.997 7.80946 199.68 7.9001C199.362 7.98167 199.081 8.10857 198.837 8.28078C198.592 8.45299 198.365 8.67052 198.157 8.93336C197.958 9.19621 197.754 9.50438 197.545 9.85786C197.192 10.4561 196.974 11.0497 196.893 11.6389C196.811 12.228 196.77 12.8262 196.77 13.4335Z" fill="white"/>
<path d="M185.913 15.9229C185.913 14.6359 185.945 13.3715 186.009 12.1297C186.072 10.8789 186.113 9.6055 186.131 8.30939C185.777 8.30939 185.438 8.33658 185.111 8.39096C184.794 8.44534 184.477 8.47253 184.16 8.47253C184.06 8.47253 183.96 8.46347 183.86 8.44534C183.761 8.42721 183.711 8.36377 183.711 8.255C183.711 8.21875 183.72 8.19156 183.738 8.17343C183.765 8.1553 183.802 8.12358 183.847 8.07826C184.309 7.66133 184.753 7.24893 185.179 6.84106C185.614 6.4332 186.036 6.0072 186.444 5.56308C186.561 5.42712 186.684 5.27757 186.811 5.11443C186.947 4.95128 187.083 4.78813 187.219 4.62498C187.364 4.45277 187.509 4.28056 187.654 4.10835C187.808 3.93614 187.957 3.77753 188.102 3.63251C188.139 3.59625 188.188 3.57812 188.252 3.57812C188.333 3.57812 188.388 3.63251 188.415 3.74127L188.252 6.7323C188.252 6.90451 188.288 6.99061 188.361 6.99061L191.868 6.7323C191.95 6.7323 192.013 6.75496 192.059 6.80028C192.104 6.8456 192.136 6.90451 192.154 6.97702C192.172 7.04047 192.181 7.10844 192.181 7.18095C192.19 7.25346 192.195 7.31691 192.195 7.37129C192.195 7.61601 192.163 7.79729 192.099 7.91511C192.036 8.02388 191.859 8.07826 191.569 8.07826H188.293C188.22 8.07826 188.166 8.12358 188.13 8.21422C188.111 8.25047 188.102 8.29126 188.102 8.33658V15.8413C188.102 16.1586 188.175 16.4939 188.32 16.8474C188.474 17.2009 188.71 17.5362 189.027 17.8535C189.172 17.9985 189.362 18.1209 189.598 18.2206C189.833 18.3203 190.06 18.3701 190.278 18.3701C190.767 18.3701 191.157 18.3112 191.447 18.1934C191.737 18.0665 191.973 17.9079 192.154 17.7175C192.344 17.5272 192.498 17.3233 192.616 17.1057C192.734 16.8791 192.87 16.6661 193.024 16.4667C193.06 16.3761 193.101 16.3308 193.146 16.3308C193.192 16.3308 193.219 16.3625 193.228 16.4259C193.246 16.4803 193.255 16.5256 193.255 16.5619C193.255 16.7704 193.187 17.0196 193.051 17.3097C192.924 17.5906 192.752 17.8761 192.534 18.1662C192.326 18.4472 192.09 18.7055 191.827 18.9411C191.565 19.1677 191.306 19.3309 191.053 19.4306C190.599 19.6209 190.119 19.7161 189.611 19.7161C189.031 19.7161 188.51 19.5982 188.048 19.3626C187.595 19.1269 187.21 18.8278 186.892 18.4653C186.575 18.0937 186.33 17.6858 186.158 17.2417C185.995 16.7885 185.913 16.3489 185.913 15.9229Z" fill="white"/>
<path d="M170.768 5.15506C170.768 4.70187 170.841 4.24415 170.986 3.78191C171.14 3.31966 171.344 2.8846 171.598 2.47673C171.852 2.0598 172.146 1.68365 172.482 1.3483C172.826 1.00388 173.188 0.727432 173.569 0.518967C173.932 0.310501 174.299 0.183609 174.67 0.13829C175.051 0.0929718 175.459 0.0703125 175.894 0.0703125C176.383 0.0703125 176.864 0.129227 177.335 0.247055C177.806 0.35582 178.264 0.52803 178.708 0.763687C178.745 0.790878 178.813 0.836197 178.912 0.899643C179.012 0.963089 179.121 1.04013 179.239 1.13077C179.365 1.2214 179.492 1.31657 179.619 1.41627C179.746 1.50691 179.859 1.59302 179.959 1.67459C179.995 1.71085 180.027 1.72897 180.054 1.72897C180.063 1.72897 180.086 1.71085 180.122 1.67459C180.149 1.63834 180.181 1.58395 180.217 1.51144C180.263 1.42987 180.308 1.3483 180.353 1.26672C180.399 1.17609 180.439 1.09451 180.476 1.022C180.521 0.940429 180.553 0.886047 180.571 0.858856C180.589 0.813537 180.612 0.772751 180.639 0.736496C180.675 0.700241 180.698 0.682113 180.707 0.682113C180.707 0.67305 180.725 0.668518 180.761 0.668518C180.816 0.668518 180.856 0.691177 180.884 0.736496C180.911 0.772751 180.929 0.818069 180.938 0.872452C180.956 0.926834 180.965 0.985748 180.965 1.04919C180.965 1.10358 180.965 1.14889 180.965 1.18515V1.28032C180.965 1.29845 180.961 1.3347 180.952 1.38908C180.952 1.44347 180.947 1.50691 180.938 1.57942C180.929 1.64287 180.92 1.70178 180.911 1.75616C180.911 1.81055 180.906 1.8468 180.897 1.86493V5.22304C180.897 5.29555 180.865 5.3454 180.802 5.37259C180.739 5.39978 180.684 5.41337 180.639 5.41337C180.539 5.41337 180.48 5.39525 180.462 5.35899C180.444 5.31367 180.417 5.23663 180.381 5.12787C180.281 4.89221 180.213 4.65202 180.177 4.4073C180.149 4.15352 180.086 3.8952 179.986 3.63235C179.887 3.33325 179.719 3.01149 179.483 2.66707C179.248 2.31358 178.976 1.98729 178.667 1.68819C178.359 1.38908 178.038 1.13983 177.702 0.940429C177.367 0.741028 177.045 0.641327 176.737 0.641327C176.166 0.641327 175.726 0.682113 175.418 0.763687C174.956 0.899643 174.566 1.1217 174.249 1.42987C173.941 1.72897 173.655 2.06886 173.392 2.44954C173.32 2.5583 173.252 2.69879 173.188 2.871C173.125 3.03415 173.071 3.21089 173.025 3.40123C172.989 3.5825 172.957 3.75925 172.93 3.93146C172.912 4.10367 172.903 4.24415 172.903 4.35292C172.903 4.78798 172.994 5.18225 173.175 5.53573C173.365 5.88922 173.61 6.20645 173.909 6.48742C174.208 6.75934 174.544 7.00406 174.915 7.22159C175.296 7.43005 175.676 7.61133 176.057 7.76541C176.383 7.90136 176.719 8.03279 177.063 8.15968C177.417 8.28657 177.761 8.418 178.096 8.55395C178.441 8.68991 178.767 8.83946 179.075 9.00261C179.393 9.16575 179.674 9.35156 179.918 9.56003C180.226 9.80475 180.53 10.1084 180.829 10.4709C181.128 10.8244 181.396 11.2142 181.631 11.6401C181.876 12.0571 182.071 12.4921 182.216 12.9453C182.361 13.3985 182.433 13.8426 182.433 14.2777C182.433 15.1206 182.284 15.882 181.985 16.5617C181.695 17.2415 181.287 17.8216 180.761 18.302C180.245 18.7733 179.633 19.1404 178.926 19.4032C178.219 19.657 177.457 19.7839 176.642 19.7839C176.161 19.7839 175.695 19.7612 175.241 19.7159C174.797 19.6615 174.371 19.5709 173.963 19.444C173.556 19.3171 173.17 19.1404 172.808 18.9138C172.445 18.6872 172.101 18.3972 171.775 18.0437C171.738 17.9983 171.688 17.9712 171.625 17.9621C171.571 17.953 171.525 17.9485 171.489 17.9485C171.335 17.9485 171.226 17.9893 171.163 18.0709C171.099 18.1524 171.045 18.2476 171 18.3564C170.963 18.4561 170.918 18.5467 170.864 18.6283C170.809 18.7098 170.714 18.7506 170.578 18.7506L170.932 15.0119C170.95 14.894 170.963 14.7535 170.972 14.5904C170.981 14.4272 171.004 14.3185 171.04 14.2641C171.068 14.1372 171.117 14.0738 171.19 14.0738C171.299 14.0738 171.376 14.1417 171.421 14.2777C171.475 14.4318 171.521 14.5859 171.557 14.7399C171.593 14.885 171.625 15.03 171.652 15.175C171.679 15.32 171.707 15.456 171.734 15.5829C171.77 15.7098 171.815 15.8231 171.87 15.9228C172.078 16.2944 172.278 16.6252 172.468 16.9152C172.667 17.2053 172.885 17.4727 173.12 17.7174C173.365 17.9621 173.646 18.1842 173.963 18.3836C174.281 18.583 174.666 18.7688 175.119 18.941C175.4 19.0407 175.667 19.0996 175.921 19.1177C176.175 19.1268 176.406 19.1313 176.615 19.1313C176.868 19.1313 177.122 19.086 177.376 18.9954C177.63 18.8957 177.933 18.7461 178.287 18.5467C178.803 18.2385 179.216 17.8715 179.524 17.4455C179.832 17.0104 179.986 16.4666 179.986 15.814C179.986 15.3517 179.9 14.9212 179.728 14.5224C179.565 14.1236 179.338 13.752 179.048 13.4076C178.631 12.9453 178.232 12.5873 177.852 12.3335C177.471 12.0707 177.095 11.8622 176.723 11.7081C176.361 11.554 175.998 11.4226 175.636 11.3139C175.273 11.2051 174.902 11.0691 174.521 10.906C174.149 10.7428 173.769 10.5253 173.379 10.2534C172.989 9.98149 172.581 9.60081 172.155 9.11137C171.231 8.02373 170.768 6.70495 170.768 5.15506Z" fill="white"/>
<path d="M153.624 12.8756L153.325 19.0752C153.325 19.1205 153.347 19.1431 153.393 19.1431H154.752C154.906 19.1431 155.038 19.1749 155.147 19.2383C155.264 19.2927 155.323 19.3743 155.323 19.483C155.323 19.6009 155.264 19.6734 155.147 19.7006C155.029 19.7277 154.929 19.7413 154.848 19.7413C154.63 19.7413 154.44 19.7368 154.277 19.7277C154.122 19.7277 153.955 19.7277 153.773 19.7277C153.592 19.7277 153.379 19.7232 153.134 19.7142C152.899 19.7142 152.586 19.7142 152.196 19.7142C151.852 19.7142 151.449 19.7187 150.986 19.7277C150.533 19.7459 150.08 19.7549 149.627 19.7549C149.446 19.7549 149.278 19.7413 149.124 19.7142C148.979 19.696 148.906 19.619 148.906 19.483C148.906 19.3743 148.929 19.2927 148.974 19.2383C149.02 19.1749 149.106 19.1431 149.233 19.1431H150.687C150.769 19.1431 150.869 19.1205 150.986 19.0752C151.104 19.0208 151.163 18.9437 151.163 18.844L151.843 4.14722C151.843 4.02032 151.838 3.89796 151.829 3.78014C151.829 3.65324 151.816 3.53995 151.789 3.44025C151.743 3.16833 151.653 2.91908 151.517 2.69249C151.381 2.4659 151.168 2.3526 150.878 2.3526C150.733 2.3526 150.61 2.37526 150.511 2.42058C150.42 2.45683 150.316 2.47496 150.198 2.47496C150.171 2.47496 150.103 2.4659 149.994 2.44777C149.894 2.42964 149.785 2.40245 149.668 2.3662C149.559 2.32994 149.459 2.28009 149.368 2.21664C149.278 2.1532 149.233 2.08069 149.233 1.99911C149.233 1.87222 149.269 1.77705 149.341 1.71361C149.423 1.6411 149.518 1.58672 149.627 1.55046C149.736 1.51421 149.849 1.49155 149.967 1.48248C150.085 1.46436 150.184 1.4417 150.266 1.4145C150.864 1.30574 151.43 1.17432 151.965 1.02023C152.5 0.857086 153.053 0.675812 153.624 0.47641C153.633 0.47641 153.651 0.471878 153.678 0.462814C153.696 0.462814 153.715 0.462814 153.733 0.462814C153.76 0.453751 153.787 0.449219 153.814 0.449219C153.932 0.449219 154.009 0.47641 154.045 0.530792C154.082 0.576111 154.109 0.621429 154.127 0.666748C154.154 0.675812 154.168 0.752853 154.168 0.897873C154.168 0.943191 154.159 1.00211 154.141 1.07462C154.131 1.13806 154.127 1.21963 154.127 1.31934L153.651 11.8559C153.651 12.0916 153.724 12.2094 153.869 12.2094C153.95 12.2094 154.014 12.1913 154.059 12.155C154.104 12.1188 154.159 12.0825 154.222 12.0462C154.53 11.7925 154.888 11.4979 155.296 11.1625C155.704 10.8272 156.098 10.5009 156.479 10.1837C156.869 9.85736 157.209 9.57185 157.499 9.32713C157.798 9.08241 157.984 8.9238 158.056 8.85129C158.129 8.77878 158.165 8.68361 158.165 8.56578C158.165 8.3845 158.07 8.25308 157.879 8.17151C157.852 8.14432 157.798 8.11259 157.716 8.07634C157.635 8.03102 157.544 7.9857 157.444 7.94038C157.345 7.89506 157.24 7.85428 157.132 7.81802C157.032 7.7727 156.946 7.74098 156.873 7.72285C156.792 7.6866 156.642 7.65941 156.425 7.64128C156.207 7.62315 156.003 7.59596 155.813 7.55971C155.686 7.53251 155.622 7.45094 155.622 7.31499C155.622 7.21528 155.659 7.14731 155.731 7.11105C155.813 7.06573 155.903 7.04307 156.003 7.04307C156.085 7.04307 156.248 7.04761 156.493 7.05667C156.746 7.06573 157.018 7.0748 157.308 7.08386C157.607 7.09292 157.897 7.10199 158.178 7.11105C158.468 7.12012 158.691 7.12465 158.845 7.12465C159.207 7.12465 159.543 7.12012 159.851 7.11105C160.168 7.10199 160.472 7.09292 160.762 7.08386C161.061 7.0748 161.355 7.06573 161.645 7.05667C161.935 7.04761 162.244 7.04307 162.57 7.04307C162.742 7.04307 162.828 7.10199 162.828 7.21982C162.828 7.38296 162.692 7.50079 162.42 7.5733C162.157 7.64581 161.931 7.70926 161.74 7.76364C161.559 7.81802 161.392 7.87694 161.237 7.94038C161.083 7.99476 160.925 8.05821 160.762 8.13072C160.608 8.19417 160.426 8.27574 160.218 8.37544C159.919 8.52046 159.624 8.67001 159.334 8.82409C159.044 8.96911 158.79 9.11867 158.573 9.27275C158.4 9.39964 158.246 9.51294 158.11 9.61264C157.984 9.71234 157.857 9.81204 157.73 9.91174C157.603 10.0114 157.467 10.1157 157.322 10.2244C157.186 10.3241 157.027 10.4374 156.846 10.5643C156.774 10.6187 156.692 10.6776 156.601 10.7411C156.52 10.8045 156.438 10.8725 156.357 10.945C156.275 11.0085 156.207 11.0764 156.153 11.1489C156.098 11.2214 156.071 11.294 156.071 11.3665C156.071 11.439 156.089 11.4934 156.126 11.5296C156.325 11.8015 156.592 12.1731 156.928 12.6445C157.272 13.1158 157.648 13.6324 158.056 14.1943C158.464 14.7472 158.885 15.3228 159.32 15.921C159.756 16.5101 160.163 17.0675 160.544 17.5932C160.716 17.838 160.888 18.06 161.061 18.2594C161.242 18.4498 161.432 18.6129 161.632 18.7489C161.84 18.8758 162.071 18.98 162.325 19.0616C162.579 19.1341 162.878 19.1794 163.222 19.1975C163.322 19.1975 163.376 19.2292 163.386 19.2927C163.404 19.3561 163.413 19.4196 163.413 19.483C163.413 19.5283 163.395 19.5737 163.358 19.619C163.331 19.6643 163.286 19.696 163.222 19.7142H162.447C162.248 19.7142 162.035 19.7096 161.808 19.7006C161.582 19.6915 161.355 19.6824 161.129 19.6734C160.911 19.6552 160.698 19.6416 160.49 19.6326C160.29 19.6235 160.114 19.619 159.959 19.619C159.506 19.619 159.067 19.6416 158.641 19.687C158.224 19.7323 157.807 19.7549 157.39 19.7549C157.317 19.7549 157.236 19.7504 157.145 19.7413C157.064 19.7413 156.982 19.7323 156.9 19.7142C156.828 19.7051 156.764 19.6824 156.71 19.6462C156.665 19.6099 156.642 19.5555 156.642 19.483C156.642 19.2474 156.76 19.1295 156.996 19.1295C157.177 19.1295 157.358 19.1341 157.539 19.1431C157.721 19.1431 157.929 19.1431 158.165 19.1431C158.283 19.1431 158.387 19.125 158.478 19.0888C158.568 19.0434 158.613 18.9709 158.613 18.8712C158.613 18.7625 158.586 18.6492 158.532 18.5313C158.487 18.4044 158.428 18.2821 158.355 18.1643C158.283 18.0374 158.201 17.9195 158.11 17.8108C158.029 17.702 157.952 17.6068 157.879 17.5253C157.571 17.1174 157.245 16.6869 156.9 16.2337C156.556 15.7805 156.212 15.3364 155.867 14.9013C155.532 14.4663 155.206 14.0629 154.888 13.6913C154.58 13.3197 154.308 13.0161 154.073 12.7804C154.018 12.717 153.95 12.6852 153.869 12.6852C153.705 12.6852 153.624 12.7487 153.624 12.8756Z" fill="white"/>
<path d="M135.82 13.3655C135.82 12.4048 135.979 11.5437 136.296 10.7824C136.622 10.0119 137.071 9.35936 137.642 8.8246C138.213 8.28984 138.893 7.87744 139.681 7.5874C140.47 7.29736 141.336 7.15234 142.278 7.15234C142.487 7.15234 142.704 7.175 142.931 7.22032C143.157 7.26564 143.384 7.32909 143.611 7.41066C143.846 7.48317 144.073 7.56927 144.29 7.66898C144.517 7.76868 144.725 7.87291 144.916 7.98167C145.994 8.57988 146.796 9.35483 147.322 10.3065C147.857 11.2582 148.124 12.3459 148.124 13.5695C148.124 14.3943 147.979 15.1873 147.689 15.9487C147.408 16.701 146.978 17.3853 146.398 18.0016C145.818 18.5998 145.156 19.0349 144.413 19.3068C143.669 19.5787 142.89 19.7147 142.074 19.7147C141.476 19.7147 140.887 19.6603 140.307 19.5515C139.736 19.4427 139.165 19.1844 138.594 18.7766C137.642 18.0877 136.94 17.3037 136.486 16.4245C136.042 15.5453 135.82 14.5257 135.82 13.3655ZM138.145 13.4335C138.145 13.796 138.177 14.1858 138.24 14.6027C138.304 15.0197 138.399 15.4411 138.526 15.8671C138.662 16.284 138.829 16.6919 139.029 17.0907C139.237 17.4805 139.482 17.8294 139.763 18.1376C140.044 18.4367 140.37 18.6769 140.742 18.8581C141.114 19.0394 141.526 19.13 141.979 19.13C142.269 19.13 142.523 19.1029 142.74 19.0485C142.958 18.985 143.153 18.8989 143.325 18.7902C143.506 18.6814 143.669 18.5545 143.815 18.4095C143.969 18.2554 144.118 18.0877 144.263 17.9064C144.517 17.5802 144.734 17.2221 144.916 16.8324C145.097 16.4427 145.247 16.0439 145.364 15.636C145.482 15.2281 145.564 14.8248 145.609 14.426C145.664 14.0181 145.691 13.6329 145.691 13.2704C145.691 12.9259 145.654 12.5453 145.582 12.1283C145.509 11.7023 145.392 11.2763 145.228 10.8503C145.074 10.4153 144.875 9.99382 144.63 9.58595C144.386 9.17808 144.091 8.81554 143.747 8.49831C143.484 8.24452 143.203 8.05872 142.904 7.94089C142.605 7.82306 142.36 7.76414 142.169 7.76414C141.743 7.76414 141.372 7.80946 141.055 7.9001C140.737 7.98167 140.456 8.10857 140.212 8.28078C139.967 8.45299 139.74 8.67052 139.532 8.93336C139.333 9.19621 139.129 9.50438 138.92 9.85786C138.567 10.4561 138.349 11.0497 138.268 11.6389C138.186 12.228 138.145 12.8262 138.145 13.4335Z" fill="white"/>
<path d="M121.68 13.3655C121.68 12.4048 121.838 11.5437 122.156 10.7824C122.482 10.0119 122.93 9.35936 123.501 8.8246C124.073 8.28984 124.752 7.87744 125.541 7.5874C126.329 7.29736 127.195 7.15234 128.138 7.15234C128.346 7.15234 128.564 7.175 128.79 7.22032C129.017 7.26564 129.243 7.32909 129.47 7.41066C129.706 7.48317 129.932 7.56927 130.15 7.66898C130.376 7.76868 130.585 7.87291 130.775 7.98167C131.854 8.57988 132.656 9.35483 133.182 10.3065C133.716 11.2582 133.984 12.3459 133.984 13.5695C133.984 14.3943 133.839 15.1873 133.549 15.9487C133.268 16.701 132.837 17.3853 132.257 18.0016C131.677 18.5998 131.015 19.0349 130.272 19.3068C129.529 19.5787 128.749 19.7147 127.934 19.7147C127.335 19.7147 126.746 19.6603 126.166 19.5515C125.595 19.4427 125.024 19.1844 124.453 18.7766C123.501 18.0877 122.799 17.3037 122.346 16.4245C121.902 15.5453 121.68 14.5257 121.68 13.3655ZM124.005 13.4335C124.005 13.796 124.036 14.1858 124.1 14.6027C124.163 15.0197 124.258 15.4411 124.385 15.8671C124.521 16.284 124.689 16.6919 124.888 17.0907C125.097 17.4805 125.341 17.8294 125.622 18.1376C125.903 18.4367 126.23 18.6769 126.601 18.8581C126.973 19.0394 127.385 19.13 127.838 19.13C128.129 19.13 128.382 19.1029 128.6 19.0485C128.817 18.985 129.012 18.8989 129.184 18.7902C129.366 18.6814 129.529 18.5545 129.674 18.4095C129.828 18.2554 129.978 18.0877 130.123 17.9064C130.376 17.5802 130.594 17.2221 130.775 16.8324C130.956 16.4427 131.106 16.0439 131.224 15.636C131.342 15.2281 131.423 14.8248 131.469 14.426C131.523 14.0181 131.55 13.6329 131.55 13.2704C131.55 12.9259 131.514 12.5453 131.441 12.1283C131.369 11.7023 131.251 11.2763 131.088 10.8503C130.934 10.4153 130.734 9.99382 130.49 9.58595C130.245 9.17808 129.95 8.81554 129.606 8.49831C129.343 8.24452 129.062 8.05872 128.763 7.94089C128.464 7.82306 128.219 7.76414 128.029 7.76414C127.603 7.76414 127.231 7.80946 126.914 7.9001C126.597 7.98167 126.316 8.10857 126.071 8.28078C125.826 8.45299 125.6 8.67052 125.391 8.93336C125.192 9.19621 124.988 9.50438 124.779 9.85786C124.426 10.4561 124.208 11.0497 124.127 11.6389C124.045 12.228 124.005 12.8262 124.005 13.4335Z" fill="white"/>
<path d="M103.391 0.24472H107.959C108.321 0.24472 108.652 0.231125 108.951 0.203934C109.25 0.176743 109.581 0.149551 109.944 0.12236C110.315 0.095169 110.759 0.0679779 111.276 0.0407867C111.793 0.0135956 112.45 0 113.247 0C114.163 0 114.956 0.131424 115.627 0.394272C116.297 0.648056 116.85 0.992477 117.285 1.42754C117.72 1.85353 118.042 2.34297 118.251 2.89586C118.459 3.44874 118.563 4.01523 118.563 4.59531C118.563 5.25696 118.482 5.82797 118.319 6.30835C118.155 6.77966 117.92 7.19659 117.612 7.55914C117.303 7.92169 116.927 8.23892 116.483 8.51083C116.039 8.78274 115.541 9.04559 114.988 9.29937C114.97 9.29937 114.942 9.30844 114.906 9.32657C114.87 9.33563 114.852 9.34923 114.852 9.36735C114.852 9.39454 114.897 9.42627 114.988 9.46252C115.731 9.73443 116.37 10.0426 116.905 10.387C117.448 10.7224 117.897 11.1121 118.251 11.5562C118.604 11.9913 118.867 12.4898 119.039 13.0518C119.211 13.6137 119.297 14.2527 119.297 14.9687C119.297 15.2497 119.252 15.5488 119.161 15.866C119.071 16.1833 118.944 16.5005 118.781 16.8177C118.618 17.1259 118.423 17.425 118.196 17.715C117.979 17.996 117.734 18.2453 117.462 18.4628C116.9 18.916 116.148 19.2468 115.205 19.4553C114.272 19.6547 113.148 19.7544 111.833 19.7544C111.543 19.7544 111.262 19.7498 110.991 19.7408C110.719 19.7408 110.433 19.7362 110.134 19.7272C109.844 19.7272 109.536 19.7227 109.21 19.7136C108.883 19.7136 108.521 19.7136 108.122 19.7136C107.723 19.7136 107.338 19.7181 106.966 19.7272C106.604 19.7362 106.241 19.7453 105.879 19.7544C105.516 19.7634 105.144 19.7725 104.764 19.7816C104.383 19.7906 103.98 19.7997 103.554 19.8088C103.554 19.7272 103.567 19.632 103.595 19.5232C103.631 19.4145 103.69 19.3374 103.771 19.2921C104.052 19.1743 104.351 19.0927 104.669 19.0474C104.986 19.0021 105.276 18.9386 105.539 18.8571C105.811 18.7664 106.033 18.6259 106.205 18.4356C106.386 18.2362 106.477 17.9235 106.477 17.4975V2.21608C106.477 2.10731 106.472 1.99855 106.463 1.88979C106.463 1.77196 106.45 1.66319 106.422 1.56349C106.395 1.45473 106.354 1.35956 106.3 1.27798C106.246 1.18735 106.169 1.11484 106.069 1.06046C105.942 0.997009 105.802 0.956222 105.647 0.938095C105.502 0.910904 105.33 0.888244 105.131 0.870117C104.931 0.851989 104.705 0.824798 104.451 0.788543C104.197 0.743225 103.898 0.670715 103.554 0.571014C103.445 0.543823 103.391 0.489441 103.391 0.407867V0.24472ZM109.318 10.4006V17.851C109.672 18.2589 110.052 18.5852 110.46 18.8299C110.868 19.0746 111.344 19.197 111.888 19.197C112.531 19.197 113.093 19.0519 113.574 18.7619C114.063 18.4719 114.466 18.1002 114.784 17.6471C115.11 17.1939 115.355 16.6863 115.518 16.1244C115.681 15.5533 115.763 14.9914 115.763 14.4385C115.763 13.804 115.64 13.2104 115.396 12.6575C115.151 12.0955 114.82 11.6106 114.403 11.2028C113.986 10.7949 113.501 10.4731 112.948 10.2375C112.404 10.0018 111.829 9.88398 111.222 9.88398H110.841C110.759 9.88398 110.628 9.88398 110.447 9.88398C110.275 9.88398 110.048 9.89305 109.767 9.91118C109.468 9.91118 109.318 10.0743 109.318 10.4006ZM109.318 0.70697V8.95949C109.318 9.05919 109.341 9.14529 109.386 9.2178C109.441 9.28125 109.504 9.3311 109.577 9.36735C109.649 9.40361 109.722 9.4308 109.794 9.44893C109.867 9.45799 109.926 9.46252 109.971 9.46252C110.678 9.46252 111.285 9.39001 111.793 9.24499C112.309 9.09997 112.74 8.9187 113.084 8.70117C113.338 8.54709 113.583 8.34768 113.818 8.10296C114.063 7.85824 114.276 7.57727 114.457 7.26004C114.648 6.94281 114.797 6.59839 114.906 6.22677C115.024 5.8461 115.083 5.44276 115.083 5.01677C115.083 3.83848 114.883 2.91852 114.485 2.25687C114.095 1.58615 113.469 1.11937 112.608 0.856521C112.264 0.747757 111.897 0.675247 111.507 0.638992C111.117 0.593674 110.687 0.571014 110.216 0.571014C110.052 0.571014 109.894 0.58461 109.74 0.611801C109.586 0.629928 109.445 0.661651 109.318 0.70697Z" fill="white"/>
<path d="M87.4453 17.7586C87.4453 17.5138 87.4997 17.2736 87.6085 17.038C87.7263 16.7933 87.8124 16.5667 87.8668 16.3582C87.8668 16.322 87.8758 16.2494 87.894 16.1407C87.9212 16.0229 87.9483 15.9005 87.9755 15.7736C88.0118 15.6376 88.0435 15.5153 88.0707 15.4065C88.0979 15.2978 88.116 15.2207 88.1251 15.1754C88.1523 15.0485 88.2157 14.9851 88.3154 14.9851C88.4604 14.9851 88.5375 15.0712 88.5466 15.2434C88.5647 15.3703 88.5692 15.4926 88.5601 15.6105C88.5601 15.7192 88.5737 15.8506 88.6009 16.0047C88.6825 16.4307 88.7958 16.8341 88.9408 17.2147C89.0949 17.5863 89.2898 17.9172 89.5254 18.2072C89.7702 18.4972 90.0602 18.7284 90.3956 18.9006C90.74 19.0637 91.1433 19.1453 91.6056 19.1453C91.9409 19.1453 92.2627 19.0955 92.5708 18.9958C92.879 18.887 93.1509 18.7374 93.3866 18.5471C93.6313 18.3568 93.8216 18.1211 93.9576 17.8401C94.1026 17.5592 94.1751 17.2419 94.1751 16.8884C94.1751 16.3356 94.0754 15.8824 93.876 15.5289C93.6857 15.1754 93.4319 14.8808 93.1147 14.6452C92.8065 14.4095 92.4485 14.2192 92.0406 14.0742C91.6418 13.9201 91.2294 13.7751 90.8034 13.6391C90.3865 13.4941 89.9741 13.34 89.5662 13.1768C89.1674 13.0046 88.8094 12.7826 88.4922 12.5107C88.184 12.2297 87.9302 11.8807 87.7308 11.4638C87.5405 11.0469 87.4453 10.5212 87.4453 9.88672C87.4453 9.49698 87.5133 9.16162 87.6492 8.88065C87.7852 8.59061 87.9076 8.35948 88.0163 8.18727C88.1523 7.97881 88.3245 7.77034 88.533 7.56187C88.7414 7.34434 88.9816 7.15401 89.2535 6.99086C89.5254 6.81865 89.8291 6.67816 90.1644 6.5694C90.5088 6.46063 90.8805 6.40625 91.2793 6.40625C91.6327 6.40625 92.0134 6.47876 92.4213 6.62378C92.8382 6.75974 93.2008 6.9546 93.5089 7.20839C93.6086 7.28996 93.7083 7.3806 93.808 7.4803C93.9077 7.58 94.0074 7.62985 94.1071 7.62985C94.234 7.62985 94.3383 7.58907 94.4198 7.50749C94.5014 7.41685 94.583 7.29903 94.6646 7.15401C94.6827 7.13588 94.7008 7.12682 94.7189 7.12682C94.7461 7.11775 94.7688 7.11322 94.7869 7.11322C94.8141 7.11322 94.8322 7.14041 94.8413 7.19479C94.8594 7.24011 94.873 7.29449 94.8821 7.35794C94.9002 7.41232 94.9093 7.47124 94.9093 7.53468C94.9183 7.58907 94.9229 7.62985 94.9229 7.65704C94.9229 7.68423 94.9093 7.77487 94.8821 7.92895C94.864 8.08304 94.8322 8.26884 94.7869 8.48637C94.7507 8.69484 94.7054 8.92143 94.651 9.16615C94.6056 9.40181 94.5513 9.62387 94.4878 9.83234C94.4334 10.0317 94.3745 10.1994 94.3111 10.3354C94.2567 10.4713 94.2023 10.5393 94.1479 10.5393C94.1298 10.5393 94.1117 10.5348 94.0935 10.5257C94.0573 10.5076 94.0392 10.4895 94.0392 10.4713C93.9667 10.3444 93.9168 10.2357 93.8896 10.145C93.8624 10.0544 93.8398 9.96829 93.8216 9.88672C93.8126 9.80514 93.8035 9.72357 93.7944 9.642C93.7944 9.55136 93.7809 9.45166 93.7537 9.34289C93.7355 9.27038 93.7174 9.20241 93.6993 9.13896C93.6812 9.06645 93.6585 9.00301 93.6313 8.94862C93.5135 8.64952 93.3911 8.4048 93.2642 8.21446C93.1373 8.02412 92.9606 7.82925 92.734 7.62985C92.5799 7.47577 92.4394 7.35794 92.3125 7.27637C92.1947 7.18573 92.0678 7.12228 91.9319 7.08603C91.7959 7.04071 91.6373 7.01352 91.456 7.00446C91.2747 6.99539 91.0527 6.99086 90.7898 6.99086C90.536 6.99086 90.3004 7.04977 90.0829 7.1676C89.8744 7.27637 89.6931 7.42592 89.539 7.61626C89.3849 7.80659 89.2626 8.02866 89.172 8.28244C89.0904 8.52716 89.0496 8.78548 89.0496 9.05739C89.0496 9.51057 89.1448 9.88219 89.3351 10.1722C89.5345 10.4532 89.7928 10.6934 90.11 10.8928C90.4363 11.0831 90.8034 11.2463 91.2113 11.3822C91.6192 11.5182 92.0316 11.6587 92.4485 11.8037C92.8745 11.9487 93.2914 12.1209 93.6993 12.3203C94.1071 12.5107 94.4697 12.7644 94.7869 13.0817C95.1132 13.3898 95.3715 13.7796 95.5619 14.2509C95.7613 14.7131 95.861 15.2887 95.861 15.9775C95.861 16.4307 95.7431 16.8884 95.5075 17.3507C95.2718 17.8039 94.9818 18.2299 94.6374 18.6287C94.4833 18.8099 94.2748 18.9776 94.012 19.1317C93.7582 19.2767 93.4727 19.4036 93.1555 19.5124C92.8473 19.6212 92.521 19.7027 92.1766 19.7571C91.8412 19.8206 91.5104 19.8523 91.1841 19.8523C90.8578 19.8523 90.4817 19.7798 90.0557 19.6347C89.6297 19.4897 89.2218 19.3085 88.8321 19.0909C88.4423 18.8734 88.1115 18.6468 87.8396 18.4111C87.5767 18.1664 87.4453 17.9489 87.4453 17.7586Z" fill="white"/>
<path d="M77.5444 18.6262V11.1758C77.5444 10.9039 77.5399 10.6184 77.5308 10.3193C77.5308 10.0111 77.5127 9.72562 77.4764 9.46277C77.4492 9.19992 77.3994 8.97786 77.3269 8.79658C77.2634 8.60625 77.1728 8.48389 77.055 8.4295C76.8374 8.3298 76.5701 8.27995 76.2528 8.27995C76.0444 8.27995 75.8495 8.28902 75.6682 8.30714C75.496 8.32527 75.3374 8.33433 75.1924 8.33433C75.147 8.33433 75.1063 8.31621 75.07 8.27995C75.0338 8.2437 75.0156 8.20744 75.0156 8.17119C75.0156 8.07149 75.0473 8.01257 75.1108 7.99445C75.3918 7.8313 75.6773 7.718 75.9673 7.65456C76.2574 7.59111 76.5565 7.50954 76.8646 7.40984C77.1365 7.32826 77.413 7.24216 77.694 7.15152C77.9749 7.06088 78.2332 6.94305 78.4689 6.79803C78.632 6.71646 78.7816 6.63036 78.9176 6.53972C79.0535 6.44908 79.2257 6.40376 79.4342 6.40376C79.4886 6.40376 79.5384 6.44002 79.5837 6.51253C79.6381 6.57597 79.6653 6.62582 79.6653 6.66208V7.40984C79.6653 7.48235 79.6653 7.56845 79.6653 7.66815C79.6744 7.76785 79.6789 7.86755 79.6789 7.96725C79.688 8.06696 79.697 8.16212 79.7061 8.25276C79.7152 8.33433 79.7242 8.39325 79.7333 8.4295C79.7424 8.46576 79.7559 8.49295 79.7741 8.51108L79.7877 8.52467C79.8421 8.52467 79.8919 8.49748 79.9372 8.4431C79.9825 8.37965 80.0324 8.30261 80.0868 8.21197C80.1502 8.11227 80.2182 8.00351 80.2907 7.88568C80.3723 7.76785 80.4765 7.65002 80.6034 7.5322C80.7756 7.35999 80.966 7.20137 81.1744 7.05635C81.392 6.90227 81.614 6.77084 81.8406 6.66208C82.0763 6.55331 82.3119 6.46721 82.5476 6.40376C82.7923 6.34032 83.0325 6.30859 83.2681 6.30859C83.6126 6.30859 83.966 6.34032 84.3286 6.40376C84.6911 6.45815 85.0174 6.56238 85.3075 6.71646C85.6066 6.86148 85.8513 7.06995 86.0416 7.34186C86.232 7.61377 86.3271 7.95819 86.3271 8.37512C86.3271 8.60171 86.2773 8.81018 86.1776 9.00052C86.087 9.19086 85.9601 9.354 85.7969 9.48996C85.6428 9.62591 85.4616 9.73468 85.2531 9.81625C85.0537 9.88876 84.8452 9.92502 84.6277 9.92502C84.4827 9.92502 84.3286 9.90236 84.1654 9.85704C84.0023 9.81172 83.8981 9.75734 83.8527 9.69389C83.5718 9.44011 83.3769 9.09569 83.2681 8.66063C83.2228 8.41591 83.1911 8.21197 83.173 8.04883C83.1639 7.87662 83.1277 7.74519 83.0642 7.65456C83.0098 7.55485 82.9147 7.48688 82.7787 7.45062C82.6427 7.4053 82.4297 7.38264 82.1397 7.38264C81.9041 7.38264 81.6593 7.44609 81.4055 7.57298C81.1608 7.69081 80.9297 7.84489 80.7122 8.03523C80.5037 8.22557 80.3224 8.43857 80.1683 8.67422C80.0143 8.90082 79.9236 9.12288 79.8964 9.34041C79.8511 9.53981 79.8239 9.75734 79.8149 9.993C79.8149 10.2196 79.8149 10.4552 79.8149 10.7V18.8709C79.8692 18.9887 79.9689 19.0658 80.114 19.102C80.259 19.1292 80.4221 19.1428 80.6034 19.1428C80.6578 19.1428 80.7303 19.1428 80.8209 19.1428C80.9206 19.1338 81.0203 19.1292 81.12 19.1292C81.2288 19.1202 81.324 19.1156 81.4055 19.1156C81.4871 19.1066 81.5415 19.102 81.5687 19.102C81.7772 19.102 81.9448 19.1292 82.0717 19.1836C82.2077 19.2289 82.2757 19.3332 82.2757 19.4963C82.2757 19.6051 82.2213 19.7048 82.1125 19.7954C82.0128 19.886 81.9131 19.9359 81.8134 19.945C81.3149 19.8634 80.8028 19.8045 80.2771 19.7682C79.7605 19.732 79.2438 19.7138 78.7272 19.7138C78.1834 19.7138 77.6758 19.7365 77.2045 19.7818C76.7332 19.8271 76.2438 19.8498 75.7362 19.8498C75.6365 19.8498 75.5187 19.8135 75.3827 19.741C75.2558 19.6685 75.1924 19.5733 75.1924 19.4555C75.1924 19.383 75.215 19.3196 75.2603 19.2652C75.3057 19.2108 75.36 19.17 75.4235 19.1428C75.496 19.1066 75.564 19.0794 75.6274 19.0612C75.6999 19.0431 75.7588 19.0341 75.8042 19.0341C75.9039 19.0341 75.999 19.0386 76.0897 19.0476C76.1894 19.0567 76.2936 19.0658 76.4024 19.0748C76.4839 19.093 76.5701 19.1066 76.6607 19.1156C76.7513 19.1247 76.8374 19.1292 76.919 19.1292C76.9734 19.1292 77.0323 19.1156 77.0957 19.0884C77.1683 19.0612 77.2362 19.025 77.2997 18.9797C77.3722 18.9253 77.4311 18.8709 77.4764 18.8165C77.5217 18.7531 77.5444 18.6896 77.5444 18.6262Z" fill="white"/>
<path d="M73.6999 11.0123H64.2918C64.1921 11.0486 64.1331 11.0894 64.115 11.1347C64.0969 11.1709 64.0788 11.248 64.0606 11.3658C64.0425 11.4474 64.0244 11.6241 64.0063 11.896C63.9972 12.1679 63.9927 12.4761 63.9927 12.8205C63.9927 13.1649 64.0334 13.4958 64.115 13.813C64.1966 14.1302 64.2872 14.4429 64.3869 14.7511C64.7676 15.875 65.3613 16.7315 66.168 17.3207C66.9837 17.9098 68.0532 18.2044 69.3765 18.2044C69.5759 18.2044 69.7934 18.1681 70.0291 18.0956C70.2648 18.0231 70.5004 17.9325 70.7361 17.8237C70.9717 17.7059 71.1983 17.5699 71.4158 17.4158C71.6334 17.2617 71.8237 17.1031 71.9869 16.94C72.1047 16.8312 72.1999 16.7089 72.2724 16.5729C72.3539 16.4279 72.4536 16.2511 72.5715 16.0427C72.6077 16.0064 72.6576 15.9792 72.721 15.9611C72.7845 15.9339 72.8388 15.9203 72.8842 15.9203C73.0473 15.9203 73.1561 15.9747 73.2105 16.0835C73.2739 16.1832 73.3056 16.3101 73.3056 16.4641C73.3056 16.5095 73.2875 16.5729 73.2512 16.6545C73.2241 16.727 73.1878 16.804 73.1425 16.8856C73.1062 16.9672 73.0609 17.0487 73.0065 17.1303C72.9612 17.2028 72.925 17.2572 72.8978 17.2935C72.5533 17.8101 72.1183 18.2678 71.5926 18.6666C71.0669 19.0564 70.437 19.3736 69.7028 19.6183C69.5397 19.6636 69.2587 19.6999 68.8599 19.7271C68.4701 19.7633 68.0441 19.7815 67.5819 19.7815C67.174 19.7815 66.7526 19.7271 66.3175 19.6183C65.8915 19.5095 65.4746 19.3555 65.0667 19.1561C64.6588 18.9567 64.2782 18.7255 63.9247 18.4627C63.5803 18.1998 63.2948 17.9098 63.0682 17.5926C62.5787 16.9219 62.2162 16.2421 61.9805 15.5532C61.7539 14.8644 61.6406 14.094 61.6406 13.242C61.6406 12.9338 61.6542 12.6438 61.6814 12.3719C61.7177 12.0909 61.772 11.819 61.8446 11.5561C61.9261 11.2933 62.0258 11.035 62.1437 10.7812C62.2615 10.5183 62.4065 10.251 62.5787 9.97905C62.8778 9.48054 63.2177 9.02283 63.5984 8.6059C63.9791 8.18896 64.4005 7.83095 64.8628 7.53184C65.325 7.23274 65.8235 7.00162 66.3583 6.83847C66.893 6.67532 67.4686 6.59375 68.0849 6.59375C68.6016 6.59375 69.1363 6.64813 69.6892 6.7569C70.2512 6.8566 70.7904 7.08319 71.3071 7.43668C71.4702 7.5545 71.6968 7.73578 71.9869 7.9805C72.2769 8.22522 72.5624 8.50166 72.8434 8.80983C73.1244 9.10893 73.3691 9.42616 73.5775 9.76152C73.786 10.0969 73.8902 10.4186 73.8902 10.7268C73.8902 10.8084 73.8721 10.8764 73.8359 10.9307C73.8087 10.9851 73.7633 11.0123 73.6999 11.0123ZM64.6452 10.2782H70.6953C70.8494 10.2782 70.94 10.26 70.9672 10.2238C71.0034 10.1785 71.0216 10.1331 71.0216 10.0878C71.0216 9.87935 70.9672 9.66182 70.8584 9.43523C70.7587 9.20863 70.6318 8.99564 70.4778 8.79623C70.3327 8.58777 70.1832 8.40196 70.0291 8.23881C69.875 8.07567 69.7436 7.94878 69.6348 7.85814C69.3448 7.61342 69.0547 7.4548 68.7647 7.38229C68.4747 7.30978 68.1438 7.27353 67.7722 7.27353C67.6181 7.27353 67.4731 7.27806 67.3372 7.28712C67.2103 7.28712 67.0834 7.29619 66.9565 7.31432C66.8296 7.33244 66.7027 7.35963 66.5758 7.39589C66.4489 7.43214 66.3084 7.48653 66.1544 7.55904C65.9821 7.64061 65.7918 7.77203 65.5833 7.95331C65.3839 8.12552 65.1936 8.32945 65.0123 8.56511C64.8401 8.7917 64.6906 9.04095 64.5637 9.31287C64.4458 9.58478 64.3869 9.85216 64.3869 10.115C64.3869 10.2238 64.473 10.2782 64.6452 10.2782Z" fill="white"/>
<path d="M46.5625 13.6526C46.5806 12.9638 46.6985 12.3202 46.916 11.722C47.1335 11.1238 47.4281 10.5755 47.7997 10.077C48.1713 9.57846 48.6018 9.13434 49.0913 8.7446C49.5898 8.35486 50.1245 8.0195 50.6956 7.73852C50.9856 7.60257 51.3119 7.48021 51.6744 7.37144C52.046 7.26268 52.4041 7.2083 52.7485 7.2083C53.0023 7.2083 53.3014 7.25361 53.6458 7.34425C53.9902 7.42582 54.3165 7.52099 54.6247 7.62976C54.9328 7.72946 55.1957 7.82463 55.4132 7.91527C55.6307 7.99684 55.744 8.04216 55.7531 8.05122C55.7712 8.06935 55.8347 8.07841 55.9434 8.07841V3.95895C55.9434 3.55109 55.9344 3.1976 55.9163 2.8985C55.9072 2.59033 55.8664 2.33655 55.7939 2.13715C55.7305 1.93774 55.6217 1.79272 55.4676 1.70209C55.3135 1.60239 55.096 1.55254 54.815 1.55254C54.7788 1.55254 54.7244 1.5616 54.6519 1.57973C54.5794 1.58879 54.4978 1.60692 54.4071 1.63411C54.3165 1.65224 54.2259 1.67036 54.1352 1.68849C54.0446 1.69756 53.963 1.70209 53.8905 1.70209C53.8633 1.70209 53.7999 1.69756 53.7002 1.68849C53.6005 1.67943 53.4917 1.6613 53.3739 1.63411C53.2651 1.60692 53.1654 1.57066 53.0748 1.52534C52.9932 1.48003 52.9524 1.42111 52.9524 1.3486C52.9524 1.31235 52.966 1.28062 52.9932 1.25343C53.0295 1.21718 53.0793 1.19905 53.1428 1.19905C53.3603 1.18092 53.605 1.1492 53.8769 1.10388C54.1488 1.0495 54.4071 0.999649 54.6519 0.95433C54.9057 0.899948 55.1232 0.850097 55.3045 0.804779C55.4948 0.75946 55.6126 0.727737 55.6579 0.70961C55.948 0.655228 56.2426 0.591781 56.5417 0.519272C56.8408 0.446762 57.1353 0.36972 57.4254 0.288147C57.4707 0.270019 57.5296 0.238296 57.6021 0.192978C57.6837 0.147659 57.7653 0.125 57.8468 0.125C57.9918 0.125 58.1142 0.165787 58.2139 0.24736C58.3136 0.31987 58.3635 0.387848 58.3635 0.451294V18.5878C58.5447 18.5606 58.7441 18.5289 58.9617 18.4926C59.1883 18.4473 59.4103 18.4065 59.6278 18.3703C59.8544 18.334 60.0674 18.3023 60.2668 18.2751C60.4753 18.2479 60.6475 18.2343 60.7835 18.2343C60.8832 18.2343 60.9376 18.2615 60.9466 18.3159C60.9647 18.3612 60.9738 18.4065 60.9738 18.4518C60.9738 18.5787 60.9421 18.6558 60.8786 18.683C60.6339 18.7464 60.4255 18.7872 60.2532 18.8053C60.081 18.8144 59.8907 18.837 59.6822 18.8733C59.3741 18.9277 59.0478 19.0093 58.7033 19.118C58.3589 19.2268 58.0281 19.3401 57.7109 19.4579C57.3302 19.6029 57.013 19.7208 56.7592 19.8114C56.5145 19.902 56.2969 19.9474 56.1066 19.9474C55.9163 19.9474 55.8211 19.8612 55.8211 19.689C55.8211 19.5078 55.8392 19.3265 55.8755 19.1452C55.9208 18.9549 55.9434 18.7827 55.9434 18.6286C55.9434 18.5833 55.9389 18.5062 55.9299 18.3975C55.9208 18.2796 55.9117 18.2026 55.9027 18.1663C55.8755 18.1029 55.8256 18.0712 55.7531 18.0712C55.7078 18.0712 55.59 18.1527 55.3996 18.3159C55.2184 18.479 55.0099 18.6648 54.7742 18.8733C54.5386 19.0727 54.2984 19.2676 54.0537 19.4579C53.818 19.6482 53.6186 19.7661 53.4555 19.8114C53.2198 19.8839 52.9705 19.9338 52.7077 19.9609C52.4539 19.9881 52.2092 20.0017 51.9735 20.0017C51.1306 20.0017 50.3738 19.8205 49.7031 19.4579C49.0324 19.0863 48.4613 18.6014 47.99 18.0032C47.5278 17.405 47.1743 16.7297 46.9296 15.9774C46.6849 15.2161 46.5625 14.4411 46.5625 13.6526ZM55.9434 17.3234V9.79146C55.6715 9.79146 55.3724 9.66456 55.0461 9.41078C54.8649 9.2567 54.7063 9.08449 54.5703 8.89415C54.4434 8.70381 54.2893 8.52707 54.108 8.36392C53.9268 8.19171 53.6956 8.05122 53.4147 7.94246C53.1428 7.82463 52.7711 7.76571 52.2998 7.76571C51.901 7.76571 51.5475 7.85635 51.2394 8.03763C50.9312 8.20984 50.6593 8.44549 50.4236 8.7446C50.1971 9.03463 50.0022 9.36999 49.839 9.75067C49.685 10.1223 49.5581 10.5075 49.4584 10.9063C49.3587 11.3051 49.2861 11.6948 49.2408 12.0755C49.1955 12.4562 49.1729 12.8006 49.1729 13.1088C49.1729 13.4079 49.1729 13.7115 49.1729 14.0197C49.1819 14.3188 49.2046 14.6134 49.2408 14.9034C49.2771 15.1934 49.336 15.4744 49.4176 15.7463C49.4991 16.0092 49.6124 16.2584 49.7575 16.4941C49.975 16.8476 50.2016 17.1784 50.4372 17.4866C50.6729 17.7947 50.9221 18.0666 51.185 18.3023C51.4478 18.5289 51.7243 18.7102 52.0143 18.8461C52.3134 18.973 52.6261 19.0364 52.9524 19.0364C53.0612 19.0364 53.2107 19.0138 53.4011 18.9685C53.5914 18.9232 53.7953 18.8597 54.0129 18.7781C54.2395 18.6966 54.4661 18.6014 54.6927 18.4926C54.9192 18.3748 55.1232 18.2524 55.3045 18.1255C55.4948 17.9987 55.6489 17.8672 55.7667 17.7313C55.8845 17.5953 55.9434 17.4594 55.9434 17.3234Z" fill="white"/>
<path d="M40.0809 17.7548L40.0129 17.8092C40.0038 17.8092 39.9268 17.8772 39.7818 18.0131C39.6458 18.14 39.4917 18.285 39.3195 18.4482C39.1473 18.6023 38.9842 18.7473 38.8301 18.8832C38.676 19.0192 38.5808 19.0917 38.5446 19.1008C38.2545 19.2639 37.9237 19.418 37.5521 19.563C37.1895 19.708 36.7771 19.7805 36.3149 19.7805C35.9886 19.7805 35.6623 19.7352 35.336 19.6446C35.0188 19.554 34.7287 19.3999 34.4659 19.1823C34.2121 18.9557 34.0036 18.6566 33.8405 18.285C33.6864 17.9134 33.6094 17.4421 33.6094 16.8711C33.6094 16.6626 33.6592 16.3998 33.7589 16.0825C33.8677 15.7563 34.0444 15.4617 34.2892 15.1988C34.5429 14.8997 34.8194 14.6505 35.1185 14.4511C35.4267 14.2426 35.762 14.0613 36.1246 13.9073C36.4962 13.7441 36.904 13.5991 37.3482 13.4722C37.7923 13.3453 38.2863 13.2139 38.8301 13.0779C38.957 13.0507 39.0929 13.019 39.2379 12.9828C39.383 12.9465 39.5189 12.9102 39.6458 12.874C39.7818 12.8377 39.8951 12.806 39.9857 12.7788C40.0854 12.7426 40.1488 12.7108 40.176 12.6837C40.2214 12.6474 40.2621 12.6157 40.2984 12.5885C40.3437 12.5613 40.3709 12.4978 40.38 12.3981C40.4162 12.1897 40.448 11.9676 40.4751 11.732C40.5114 11.4963 40.5386 11.2606 40.5567 11.025C40.5839 10.7893 40.602 10.5627 40.6111 10.3452C40.6202 10.1277 40.6247 9.93281 40.6247 9.7606C40.6247 9.40712 40.5567 9.07629 40.4208 8.76813C40.2848 8.45996 40.099 8.19258 39.8633 7.96599C39.6367 7.73939 39.3694 7.56265 39.0612 7.43576C38.753 7.30887 38.4267 7.24542 38.0823 7.24542C37.8104 7.24542 37.5249 7.3134 37.2258 7.44936C36.9358 7.57625 36.6684 7.74846 36.4237 7.96599C36.188 8.18352 35.9931 8.43277 35.839 8.71374C35.685 8.98566 35.6079 9.26663 35.6079 9.55667C35.6079 9.69263 35.6442 9.80139 35.7167 9.88296C35.7892 9.96454 35.8662 10.0416 35.9478 10.1141C36.0294 10.1866 36.1064 10.2682 36.1789 10.3588C36.2514 10.4494 36.2877 10.5718 36.2877 10.7259C36.2877 11.0975 36.1699 11.3875 35.9342 11.596C35.6986 11.8045 35.4085 11.9087 35.0641 11.9087C34.8556 11.9087 34.6698 11.8679 34.5067 11.7863C34.3526 11.6957 34.2166 11.5824 34.0988 11.4465C33.981 11.3014 33.8904 11.1383 33.8269 10.957C33.7725 10.7757 33.7453 10.5899 33.7453 10.3996C33.7453 10.2183 33.7952 10.0235 33.8949 9.81499C33.9946 9.60652 34.1169 9.40259 34.262 9.20319C34.407 9.00378 34.5565 8.81798 34.7106 8.64577C34.8738 8.46449 35.0097 8.31947 35.1185 8.21071C35.3179 8.02037 35.5082 7.85269 35.6895 7.70767C35.8798 7.56265 36.0792 7.41763 36.2877 7.27261C36.4418 7.17291 36.6004 7.09134 36.7635 7.02789C36.9267 6.96445 37.0853 6.91006 37.2394 6.86475C37.33 6.82849 37.4524 6.7877 37.6065 6.74239C37.7696 6.688 37.9464 6.63815 38.1367 6.59283C38.3361 6.54752 38.54 6.51126 38.7485 6.48407C38.966 6.44781 39.1745 6.42969 39.3739 6.42969C39.7999 6.42969 40.2168 6.4886 40.6247 6.60643C41.0416 6.72426 41.4087 6.91006 41.7259 7.16385C42.0522 7.41763 42.3151 7.74393 42.5145 8.14273C42.7139 8.54153 42.8136 9.01738 42.8136 9.57027C42.8136 10.1866 42.7819 10.8165 42.7184 11.4601C42.655 12.1036 42.5825 12.7199 42.5009 13.309C42.4284 13.8982 42.3604 14.4375 42.2969 14.9269C42.2335 15.4164 42.2018 15.8106 42.2018 16.1097C42.2018 16.2638 42.2154 16.4587 42.2426 16.6943C42.2698 16.9209 42.3196 17.143 42.3921 17.3605C42.4737 17.569 42.5825 17.7503 42.7184 17.9044C42.8544 18.0584 43.0311 18.1355 43.2486 18.1355C43.5024 18.1355 43.7471 18.0766 43.9828 17.9587C44.2185 17.8409 44.436 17.6914 44.6354 17.5101C44.8348 17.3288 45.0115 17.1294 45.1656 16.9119C45.3288 16.6943 45.4602 16.4814 45.5599 16.2729C45.578 16.2366 45.5961 16.2004 45.6143 16.1641C45.6415 16.1188 45.6777 16.0961 45.723 16.0961C45.7593 16.0961 45.7774 16.1279 45.7774 16.1913V16.3273C45.7774 16.7261 45.7004 17.1294 45.5463 17.5373C45.4013 17.9361 45.1837 18.3032 44.8937 18.6385C44.6127 18.9648 44.2638 19.2322 43.8468 19.4407C43.4299 19.6491 42.9495 19.7534 42.4057 19.7534C42.306 19.7534 42.1882 19.7443 42.0522 19.7262C41.9253 19.7171 41.803 19.6899 41.6851 19.6446C41.4495 19.5268 41.2546 19.3999 41.1005 19.2639C40.9465 19.1189 40.8105 18.9693 40.6927 18.8153C40.5839 18.6612 40.4797 18.498 40.38 18.3258C40.2893 18.1445 40.1896 17.9542 40.0809 17.7548ZM35.7711 17.2654C35.7711 17.492 35.8164 17.6868 35.907 17.85C35.9977 18.0131 36.1155 18.1491 36.2605 18.2578C36.4146 18.3575 36.5868 18.4346 36.7771 18.489C36.9675 18.5343 37.1578 18.5569 37.3482 18.5569C37.5838 18.5569 37.8104 18.5343 38.0279 18.489C38.2545 18.4346 38.4675 18.3666 38.6669 18.285C38.8663 18.2035 39.0476 18.1174 39.2108 18.0267C39.383 17.927 39.537 17.8318 39.673 17.7412C39.8996 17.5418 40.0129 17.3379 40.0129 17.1294C40.0129 16.4587 40.0537 15.8288 40.1353 15.2396C40.2259 14.6414 40.2712 14.0568 40.2712 13.4858C40.2712 13.4223 40.2621 13.3544 40.244 13.2819C40.235 13.2093 40.1942 13.1731 40.1217 13.1731C40.0401 13.1731 39.9585 13.1867 39.8769 13.2139C39.8044 13.232 39.7364 13.2501 39.673 13.2683C39.2742 13.4133 38.8845 13.5719 38.5038 13.7441C38.1231 13.9163 37.747 14.0931 37.3753 14.2743C37.1216 14.4103 36.895 14.5916 36.6956 14.8182C36.4962 15.0448 36.3285 15.294 36.1925 15.5659C36.0566 15.8378 35.9523 16.1233 35.8798 16.4224C35.8073 16.7125 35.7711 16.9935 35.7711 17.2654Z" fill="white"/>
<path d="M31.8562 11.0123H22.448C22.3483 11.0486 22.2894 11.0894 22.2713 11.1347C22.2531 11.1709 22.235 11.248 22.2169 11.3658C22.1988 11.4474 22.1806 11.6241 22.1625 11.896C22.1534 12.1679 22.1489 12.4761 22.1489 12.8205C22.1489 13.1649 22.1897 13.4958 22.2713 13.813C22.3528 14.1302 22.4435 14.4429 22.5432 14.7511C22.9239 15.875 23.5175 16.7315 24.3242 17.3207C25.1399 17.9098 26.2095 18.2044 27.5328 18.2044C27.7322 18.2044 27.9497 18.1681 28.1853 18.0956C28.421 18.0231 28.6567 17.9325 28.8923 17.8237C29.128 17.7059 29.3546 17.5699 29.5721 17.4158C29.7896 17.2617 29.98 17.1031 30.1431 16.94C30.2609 16.8312 30.3561 16.7089 30.4286 16.5729C30.5102 16.4279 30.6099 16.2511 30.7277 16.0427C30.764 16.0064 30.8138 15.9792 30.8773 15.9611C30.9407 15.9339 30.9951 15.9203 31.0404 15.9203C31.2036 15.9203 31.3123 15.9747 31.3667 16.0835C31.4302 16.1832 31.4619 16.3101 31.4619 16.4641C31.4619 16.5095 31.4438 16.5729 31.4075 16.6545C31.3803 16.727 31.3441 16.804 31.2987 16.8856C31.2625 16.9672 31.2172 17.0487 31.1628 17.1303C31.1175 17.2028 31.0812 17.2572 31.054 17.2935C30.7096 17.8101 30.2745 18.2678 29.7488 18.6666C29.2231 19.0564 28.5932 19.3736 27.8591 19.6183C27.6959 19.6636 27.4149 19.6999 27.0161 19.7271C26.6264 19.7633 26.2004 19.7815 25.7381 19.7815C25.3303 19.7815 24.9088 19.7271 24.4738 19.6183C24.0478 19.5095 23.6308 19.3555 23.223 19.1561C22.8151 18.9567 22.4344 18.7255 22.0809 18.4627C21.7365 18.1998 21.451 17.9098 21.2244 17.5926C20.735 16.9219 20.3724 16.2421 20.1368 15.5532C19.9102 14.8644 19.7969 14.094 19.7969 13.242C19.7969 12.9338 19.8105 12.6438 19.8377 12.3719C19.8739 12.0909 19.9283 11.819 20.0008 11.5561C20.0824 11.2933 20.1821 11.035 20.2999 10.7812C20.4177 10.5183 20.5628 10.251 20.735 9.97905C21.0341 9.48054 21.374 9.02283 21.7546 8.6059C22.1353 8.18896 22.5568 7.83095 23.019 7.53184C23.4813 7.23274 23.9798 7.00162 24.5145 6.83847C25.0493 6.67532 25.6248 6.59375 26.2412 6.59375C26.7578 6.59375 27.2926 6.64813 27.8455 6.7569C28.4074 6.8566 28.9467 7.08319 29.4633 7.43668C29.6265 7.5545 29.8531 7.73578 30.1431 7.9805C30.4331 8.22522 30.7187 8.50166 30.9996 8.80983C31.2806 9.10893 31.5253 9.42616 31.7338 9.76152C31.9423 10.0969 32.0465 10.4186 32.0465 10.7268C32.0465 10.8084 32.0284 10.8764 31.9921 10.9307C31.9649 10.9851 31.9196 11.0123 31.8562 11.0123ZM22.8015 10.2782H28.8515C29.0056 10.2782 29.0962 10.26 29.1234 10.2238C29.1597 10.1785 29.1778 10.1331 29.1778 10.0878C29.1778 9.87935 29.1234 9.66182 29.0147 9.43523C28.915 9.20863 28.7881 8.99564 28.634 8.79623C28.489 8.58777 28.3394 8.40196 28.1853 8.23881C28.0313 8.07567 27.8998 7.94878 27.7911 7.85814C27.501 7.61342 27.211 7.4548 26.921 7.38229C26.6309 7.30978 26.3001 7.27353 25.9285 7.27353C25.7744 7.27353 25.6294 7.27806 25.4934 7.28712C25.3665 7.28712 25.2396 7.29619 25.1127 7.31432C24.9859 7.33244 24.859 7.35963 24.7321 7.39589C24.6052 7.43214 24.4647 7.48653 24.3106 7.55904C24.1384 7.64061 23.9481 7.77203 23.7396 7.95331C23.5402 8.12552 23.3499 8.32945 23.1686 8.56511C22.9964 8.7917 22.8468 9.04095 22.7199 9.31287C22.6021 9.58478 22.5432 9.85216 22.5432 10.115C22.5432 10.2238 22.6293 10.2782 22.8015 10.2782Z" fill="white"/>
<path d="M2.7735 18.492V1.98694C2.7735 1.86005 2.73271 1.75581 2.65114 1.67424C2.56956 1.59267 2.46533 1.52922 2.33844 1.4839C2.22061 1.42952 2.09372 1.39326 1.95776 1.37514C1.82181 1.35701 1.69945 1.34795 1.59068 1.34795H1.03326C0.906372 1.34795 0.802139 1.34795 0.720566 1.34795C0.638992 1.34795 0.561951 1.33888 0.489441 1.32075C0.380676 1.32075 0.326294 1.28903 0.326294 1.22559C0.326294 1.12588 0.380676 1.06244 0.489441 1.03525C0.788543 0.980865 1.06046 0.940079 1.30518 0.912887C1.55896 0.885696 1.80821 0.867569 2.05293 0.858505C2.29765 0.840378 2.54237 0.831314 2.78709 0.831314C3.04088 0.82225 3.31732 0.804123 3.61642 0.776932C3.66174 0.776932 3.76144 0.7724 3.91553 0.763336C4.07867 0.745209 4.26901 0.727081 4.48654 0.708954C4.71313 0.690826 4.94879 0.672699 5.19351 0.654571C5.44729 0.62738 5.68295 0.604721 5.90048 0.586594C6.12707 0.559402 6.32194 0.536743 6.48509 0.518616C6.64824 0.500488 6.757 0.486893 6.81138 0.477829C7.07423 0.441574 7.35974 0.414383 7.66791 0.396255C7.98514 0.369064 8.29783 0.355469 8.606 0.355469C9.54863 0.355469 10.4006 0.473297 11.162 0.708954C11.9324 0.94461 12.5895 1.27997 13.1333 1.71503C13.6772 2.15008 14.0941 2.67125 14.3841 3.27852C14.6832 3.88579 14.8328 4.56103 14.8328 5.30426C14.8328 5.8934 14.7693 6.45082 14.6424 6.97651C14.5155 7.49315 14.2663 8.00071 13.8947 8.49922C13.7134 8.73488 13.5185 8.93881 13.3101 9.11102C13.1107 9.27417 12.9022 9.42372 12.6847 9.55967C12.4762 9.69563 12.2587 9.82252 12.0321 9.94035C11.8055 10.0582 11.5789 10.1896 11.3523 10.3346C11.2889 10.3709 11.2571 10.4343 11.2571 10.525C11.2571 10.5431 11.2798 10.5975 11.3251 10.6881C11.9414 11.4404 12.5397 12.2063 13.1197 12.9858C13.6998 13.7652 14.2618 14.5674 14.8056 15.3922C15.0594 15.7457 15.3403 16.1037 15.6485 16.4662C15.9657 16.8288 16.283 17.1687 16.6002 17.4859C16.7724 17.6581 16.9492 17.8213 17.1304 17.9753C17.3117 18.1294 17.5202 18.279 17.7558 18.424C18.0005 18.5599 18.2861 18.6914 18.6123 18.8183C18.9386 18.9361 19.3284 19.0403 19.7816 19.131C19.8994 19.1672 19.9991 19.208 20.0807 19.2533C20.1713 19.2896 20.2166 19.3485 20.2166 19.4301C20.2166 19.5932 20.1622 19.6793 20.0535 19.6884C20.0353 19.7065 19.9946 19.7156 19.9311 19.7156C19.8767 19.7156 19.8088 19.7156 19.7272 19.7156H19.3737C19.1924 19.7156 18.9749 19.7156 18.7211 19.7156C18.4764 19.7065 18.2135 19.702 17.9326 19.702C17.6607 19.6929 17.3797 19.6838 17.0896 19.6748C16.7996 19.6657 16.5322 19.6567 16.2875 19.6476C15.925 19.6295 15.5851 19.5977 15.2678 19.5524C14.9506 19.5071 14.6334 19.3802 14.3161 19.1717C14.1077 19.072 13.8901 18.8998 13.6636 18.6551C13.437 18.4013 13.224 18.1294 13.0246 17.8394C12.7798 17.5131 12.517 17.1505 12.236 16.7517C11.9641 16.3529 11.6877 15.9496 11.4067 15.5417C11.1257 15.1339 10.8493 14.7351 10.5774 14.3453C10.3145 13.9556 10.0698 13.6021 9.8432 13.2849C9.62567 12.9586 9.43986 12.6867 9.28578 12.4691C9.14076 12.2425 9.04559 12.093 9.00027 12.0205C8.96402 11.9661 8.89604 11.8709 8.79634 11.735C8.7057 11.599 8.606 11.4631 8.49724 11.3271C8.38847 11.1821 8.27971 11.0552 8.17094 10.9464C8.06218 10.8286 7.9806 10.7651 7.92622 10.7561C7.70869 10.7289 7.45491 10.7108 7.16487 10.7017C6.88389 10.6926 6.62558 10.6881 6.38992 10.6881H6.03644C5.93674 10.6881 5.83703 10.7153 5.73733 10.7697C5.6467 10.815 5.58325 10.8966 5.547 11.0144V17.4315C5.547 17.5403 5.55153 17.6672 5.56059 17.8122C5.57872 17.9572 5.60138 18.0977 5.62857 18.2337C5.65576 18.3696 5.69201 18.4965 5.73733 18.6143C5.78265 18.7231 5.83703 18.8001 5.90048 18.8455C6.01831 18.927 6.21771 18.9995 6.49869 19.063C6.77966 19.1174 7.07423 19.1627 7.3824 19.1989C7.69963 19.2261 7.99873 19.2488 8.27971 19.2669C8.56975 19.285 8.77368 19.2941 8.89151 19.2941C8.97308 19.2941 9.02746 19.3304 9.05465 19.4029C9.08185 19.4754 9.09544 19.5479 9.09544 19.6204C9.09544 19.7201 9.07278 19.779 9.02746 19.7971C8.99121 19.8243 8.91417 19.8379 8.79634 19.8379C8.65132 19.8379 8.42019 19.8289 8.10296 19.8107C7.78573 19.8017 7.45038 19.7881 7.09689 19.77C6.75247 19.7609 6.43071 19.7473 6.13161 19.7292C5.84157 19.7201 5.6467 19.7156 5.547 19.7156H1.33237C1.29611 19.7156 1.2372 19.7156 1.15562 19.7156C1.07405 19.7065 0.983413 19.702 0.883713 19.702C0.784012 19.6929 0.684311 19.6884 0.58461 19.6884C0.484909 19.6793 0.398804 19.6748 0.326294 19.6748C0.226593 19.6567 0.145019 19.6476 0.0815735 19.6476C0.0271912 19.6385 0 19.5841 0 19.4844C0 19.421 0.0181274 19.3757 0.0543823 19.3485C0.0906372 19.3122 0.181274 19.2714 0.326294 19.2261C0.498504 19.1899 0.716034 19.1717 0.978882 19.1717C1.25079 19.1627 1.51364 19.14 1.76743 19.1038C2.02121 19.0675 2.24327 19.0086 2.43361 18.927C2.63301 18.8364 2.74631 18.6914 2.7735 18.492ZM5.547 1.27997V10.0083C5.547 10.099 5.57419 10.176 5.62857 10.2395C5.68295 10.3029 5.74187 10.3346 5.80531 10.3346H6.34913C6.6573 10.3346 6.98359 10.321 7.32802 10.2938C7.67244 10.2666 7.94888 10.2304 8.15735 10.1851C8.40207 10.1216 8.64679 10.0219 8.89151 9.88597C9.13623 9.74095 9.36735 9.58233 9.58488 9.41012C9.80241 9.22885 10.0063 9.03851 10.1967 8.83911C10.387 8.63064 10.5547 8.43124 10.6997 8.2409C10.8538 8.02337 10.9898 7.82397 11.1076 7.6427C11.2254 7.46142 11.3251 7.27109 11.4067 7.07168C11.4973 6.87228 11.5653 6.65022 11.6106 6.4055C11.665 6.15172 11.7058 5.85261 11.733 5.50819C11.733 5.02782 11.6967 4.60182 11.6242 4.23021C11.5517 3.84953 11.4339 3.50511 11.2707 3.19694C11.1167 2.88878 10.9218 2.60327 10.6861 2.34042C10.4505 2.07758 10.1695 1.82379 9.8432 1.57907C9.73443 1.50656 9.60754 1.43405 9.46252 1.36154C9.32657 1.28903 9.18155 1.22559 9.02746 1.1712C8.87338 1.10776 8.71476 1.05338 8.55162 1.00806C8.38847 0.962738 8.23439 0.926483 8.08937 0.899292C8.00779 0.881164 7.87184 0.872101 7.6815 0.872101C7.49116 0.863037 7.33708 0.858505 7.21925 0.858505C7.09236 0.858505 6.93374 0.863037 6.74341 0.872101C6.55307 0.872101 6.36726 0.885696 6.18599 0.912887C6.01378 0.940079 5.86423 0.985397 5.73733 1.04884C5.61044 1.10323 5.547 1.18027 5.547 1.27997Z" fill="white"/>
</svg>
